<svg width="24" height="24" viewBox="0 0 24 24" fill="none" xmlns="http://www.w3.org/2000/svg">
<g clip-path="url(#clip0_295_8574)">
<path d="M8.02278 2.10773C9.63081 1.10238 11.0359 1.50716 11.8792 2.15283C12.225 2.41681 12.3985 2.54881 12.5 2.54881C12.6014 2.54881 12.7749 2.41681 13.1207 2.15283C13.964 1.50716 15.368 1.10238 16.9771 2.10773C19.0892 3.42766 19.567 7.77904 14.6971 11.4507C13.7687 12.1502 13.3051 12.5 12.5 12.5C11.6949 12.5 11.2312 12.1502 10.3039 11.4507C5.43292 7.77904 5.91075 3.42656 8.02278 2.10773Z" stroke="#FDFAFA" stroke-width="2" stroke-linecap="round"/>
<path d="M3.5 14.5H5.895C6.189 14.5 6.479 14.5825 6.742 14.7425L8.784 15.9774C9.047 16.1361 9.337 16.2186 9.632 16.2186H10.674C11.682 16.2186 12.5 17.2072 12.5 18.4271C12.5 18.4771 12.473 18.5196 12.434 18.5333L9.893 19.412C9.43705 19.5694 8.95087 19.5144 8.525 19.257L6.342 17.9372" stroke="#FDFAFA" stroke-width="2" stroke-linecap="round" stroke-linejoin="round"/>
<path d="M13.0624 17.2128L17.9425 15.5998C18.3673 15.4596 18.8225 15.4673 19.243 15.6219C19.6636 15.7764 20.028 16.07 20.2842 16.4606C20.6763 17.0436 20.5169 17.8804 19.9453 18.2348L11.9606 23.1926C11.711 23.3481 11.4345 23.4472 11.1481 23.4839C10.8617 23.5207 10.5713 23.4943 10.2947 23.4064L3.5 21.2367" stroke="#FDFAFA" stroke-width="2" stroke-linecap="round" stroke-linejoin="round"/>
</g>
<defs>
<clipPath id="clip0_295_8574">
<rect width="24" height="24" fill="white"/>
</clipPath>
</defs>
</svg>
