<svg width="91" height="104" viewBox="0 0 91 104" fill="none" xmlns="http://www.w3.org/2000/svg">
<g clip-path="url(#clip0_296_16150)">
<mask id="mask0_296_16150" style="mask-type:luminance" maskUnits="userSpaceOnUse" x="0" y="50" width="91" height="54">
<path d="M91 50.1924H0V104H91V50.1924Z" fill="white"/>
</mask>
<g mask="url(#mask0_296_16150)">
<path d="M73.1173 66.226C73.1173 66.0437 73.3178 65.7385 73.586 65.5143L74.0547 65.1224V54.0686L73.5067 53.6071C73.1187 53.2802 72.9861 53.0734 73.0539 52.8984C73.1375 52.6785 73.4274 52.651 75.729 52.651H78.3091V52.9982C78.3091 53.2397 78.1605 53.4336 77.8259 53.6317C77.2217 53.989 77.1553 54.2942 77.1553 56.7185V58.5815H83.645L83.6364 56.9542C83.6234 54.5705 83.5181 54.1062 82.8562 53.4972C82.5303 53.1963 82.3442 52.9172 82.4048 52.8188C82.4769 52.7017 83.2686 52.651 85.018 52.651C87.4595 52.651 87.5331 52.6597 87.6989 52.9707C87.8417 53.2368 87.8273 53.315 87.6153 53.4408C86.8048 53.921 86.7529 54.0252 86.6519 55.3487C86.5178 57.1119 86.5221 60.8683 86.6591 63.1913L86.7745 65.1267L87.3254 65.591C87.709 65.9136 87.8489 66.1276 87.784 66.2954C87.7033 66.5081 87.3918 66.537 85.1809 66.537C83.159 66.537 82.637 66.4965 82.4971 66.3258C82.2793 66.064 82.3918 65.8731 82.9283 65.5953C83.5239 65.2858 83.6595 64.6016 83.6133 62.1673L83.5729 60.1003L77.1481 60.0222L77.2274 65.3075L77.8461 65.5881C78.322 65.8036 78.4562 65.9381 78.423 66.1667C78.3826 66.4531 78.2817 66.4661 75.7492 66.5037C73.1216 66.5428 73.1173 66.5428 73.1173 66.226ZM2.55121 66.4444C2.37238 66.265 2.44449 66.1276 2.99251 65.6098L3.53331 65.0978V54.219L2.89588 53.6737C2.45026 53.2918 2.28729 53.0575 2.35075 52.8897C2.43151 52.68 2.75743 52.651 5.04758 52.651C8.06745 52.651 8.20734 52.7147 7.27571 53.6708L6.72625 54.2363L6.59789 56.205C6.52723 57.2884 6.50415 58.2662 6.54742 58.3775C6.61087 58.5439 7.21369 58.5815 9.87447 58.5815H13.1236L13.1121 57.1712C13.1049 56.3959 13.0515 55.3761 12.9939 54.9061C12.9001 54.1582 12.8208 53.9948 12.3564 53.6042C12.0651 53.3583 11.8257 53.0416 11.8257 52.9013C11.8257 52.664 12.019 52.6467 14.4562 52.6843C16.8833 52.7205 17.0896 52.7436 17.1372 52.9909C17.1689 53.1558 17.0131 53.4061 16.729 53.6433C16.4031 53.9167 16.2344 54.2146 16.145 54.6775C15.9935 55.4644 15.9834 62.5708 16.132 64.0534C16.2315 65.0471 16.2719 65.1412 16.781 65.5722C17.1775 65.9063 17.2987 66.1002 17.2266 66.2867C17.1372 66.5211 16.905 66.5399 14.5153 66.5037C12.1632 66.469 11.8964 66.4401 11.8531 66.213C11.8214 66.0495 11.9815 65.8557 12.3074 65.6633C12.5828 65.4999 12.8554 65.2554 12.9131 65.1195C12.9693 64.9849 13.0487 63.8162 13.089 62.5231L13.1611 60.1726L11.3036 60.1711C10.2826 60.1711 8.81304 60.1292 8.04005 60.0771L6.63395 59.9845V65.2308L7.21946 65.6026C7.59731 65.8412 7.78911 66.0611 7.75883 66.2188C7.71701 66.4372 7.42858 66.469 5.1817 66.5037C3.78858 66.5254 2.60601 66.4979 2.55121 66.4444ZM34.0349 66.5428C32.2899 66.4733 32.088 66.4372 32.088 66.2057C32.088 66.0568 32.3259 65.8123 32.6519 65.6272C32.9605 65.4521 33.3326 65.1455 33.4782 64.9459C33.7681 64.5481 35.2492 60.5964 36.377 57.2074C37.1052 55.0218 37.2985 53.7503 37.0173 52.9765L36.9005 52.651H41.0784L41.1808 53.1211C41.2385 53.38 41.5312 54.2421 41.8355 55.0377C42.1384 55.8332 43.0094 58.1765 43.7723 60.2449C44.5352 62.3133 45.301 64.266 45.4755 64.5843C45.6543 64.9112 46.1043 65.3726 46.511 65.646C46.9076 65.9121 47.2306 66.2043 47.2306 66.2969C47.2306 66.4169 46.4043 66.4762 44.3103 66.5037C41.475 66.5413 41.3899 66.5341 41.3899 66.2549C41.3899 66.0799 41.5615 65.8774 41.8225 65.7414C42.3605 65.4623 42.3619 65.2439 41.8456 63.6441L41.4476 62.4146H36.0943L35.7857 63.592C35.3574 65.2294 35.3747 65.4377 35.9818 65.8138C36.5212 66.1479 36.6293 66.4516 36.2587 66.5934C36.1332 66.6426 36.0193 66.6686 36.0063 66.6513C35.9933 66.6353 35.1064 66.5862 34.0349 66.5428ZM24.2643 66.5731L19.4691 66.5326V66.2043C19.4691 65.9931 19.6234 65.7848 19.9003 65.6199C20.1383 65.4796 20.382 65.1889 20.4411 64.9748C20.5709 64.5119 20.5378 55.4673 20.4036 54.5488C20.3387 54.1004 20.183 53.7981 19.87 53.5117C19.5903 53.2542 19.4619 53.0242 19.5167 52.8796C19.5946 52.6771 20.1671 52.651 24.4359 52.651H29.2686L29.4878 53.0748C29.6075 53.3092 29.7849 53.9601 29.8815 54.5213C30.1281 55.9692 29.9536 56.0878 28.9426 55.1606C27.9879 54.2855 27.4515 54.1134 25.3344 53.9991L23.6961 53.9109L23.5995 55.0753C23.5461 55.7161 23.5461 56.7025 23.598 57.2667L23.6932 58.2922H27.574L28.0067 57.8264C28.4235 57.3795 28.448 57.3723 28.6412 57.637C28.8864 57.9725 28.9225 60.3331 28.6888 60.7685C28.5417 61.0448 28.5114 61.0347 27.9678 60.5429L27.3995 60.0279H23.6442L23.7235 65.1628L25.0214 65.2062C26.566 65.2583 28.011 65.0356 28.6773 64.6436C28.9441 64.4874 29.4762 64.0925 29.8613 63.767C30.5824 63.1581 31.0064 63.1031 31.0064 63.6195C31.0064 63.9637 29.88 66.4271 29.658 66.5703C29.5671 66.6296 29.394 66.6628 29.2758 66.6455C29.1575 66.6281 26.902 66.5948 24.2643 66.5731ZM20.3085 82.7011C20.0359 82.4841 19.6552 81.4702 18.3255 77.4273C17.2251 74.0817 16.7838 73.0721 16.1176 72.3691C15.3532 71.562 15.558 71.4549 17.8828 71.4549C20.1715 71.4549 20.4368 71.5779 19.6278 72.2606C19.3812 72.4674 19.1807 72.7466 19.1807 72.8782C19.1807 73.0099 19.3754 73.5306 19.6133 74.034C19.8499 74.5373 20.1484 75.3184 20.2739 75.7697C21.0209 78.4384 21.53 79.8646 21.6756 79.6954C21.8083 79.542 23.063 76.072 23.373 74.9987C23.5576 74.3623 23.9081 73.3208 24.1533 72.6844C24.5152 71.7442 24.6623 71.5186 24.9349 71.4795C25.1195 71.452 25.3257 71.4853 25.3935 71.5533C25.4598 71.6198 26.0973 73.3469 26.8097 75.3907C28.2446 79.5102 28.3889 79.8516 28.5547 79.542C28.6585 79.3511 30.5636 73.9486 30.7843 73.2239C30.8622 72.965 30.7713 72.7813 30.3617 72.3705C29.5484 71.5547 29.7041 71.4549 31.7952 71.4549C33.8388 71.4549 34.0464 71.5894 33.0413 72.2577C32.4543 72.6468 32.2437 73.0301 31.2573 75.505C30.9876 76.1805 30.529 77.4505 30.2377 78.3256C29.1676 81.5497 28.7638 82.5102 28.3975 82.6996C27.9331 82.9383 27.1875 82.9296 26.9828 82.6823C26.8155 82.4812 26.0165 80.3419 25.5233 78.774C25.1527 77.5966 24.4648 75.9404 24.3465 75.9389C24.2297 75.9389 23.9514 76.6795 22.8524 79.9167C22.3938 81.2691 21.9222 82.4899 21.804 82.6288C21.5487 82.9267 20.6445 82.9701 20.3085 82.7011ZM76.7587 82.7879C76.4963 82.6779 76.5381 82.3482 76.8438 82.1312C77.4106 81.7276 77.4438 81.4412 77.4438 77.0194V72.7278L77.0111 72.3228C76.4631 71.8093 76.4674 71.6574 77.0284 71.5446C77.6067 71.4289 80.3771 71.4274 80.6771 71.5432C81.0362 71.682 80.9439 72.006 80.4737 72.249C79.9647 72.5137 79.9344 72.6323 79.8421 74.7456L79.7714 76.3729H84.943V74.5576C84.943 72.7813 84.9343 72.735 84.5608 72.3879C84.3517 72.1926 84.1238 72.0335 84.056 72.0335C83.9883 72.0335 83.9335 71.9395 83.9335 71.8238C83.9335 71.5215 84.7093 71.413 86.4226 71.4781C88.2974 71.5489 88.4301 71.6271 87.8042 72.2751L87.3225 72.7726V76.924C87.3225 79.2065 87.3716 81.2517 87.4321 81.4687C87.4956 81.6958 87.7307 81.962 87.983 82.0921C88.2585 82.2353 88.4041 82.4104 88.3753 82.5651C88.3349 82.7792 88.0652 82.8139 86.2005 82.8501C84.3156 82.8848 84.0604 82.8617 83.9782 82.6461C83.9133 82.4754 84.0431 82.2758 84.4137 81.9779L84.943 81.5526V77.6747H79.8954V81.8159L80.4103 82.0618C80.7578 82.2281 80.9093 82.3901 80.8775 82.5593C80.8343 82.7807 80.6021 82.8125 78.8845 82.8371C77.8144 82.8515 76.8583 82.8298 76.7587 82.7879ZM62.5146 66.3866C62.4627 66.3041 62.6545 65.9787 62.9386 65.6633L63.4549 65.0891L63.4563 60.6427C63.4563 58.1967 63.4981 55.7551 63.5486 55.2185L63.6409 54.2421H62.4843C60.7551 54.2421 60.4941 54.3304 59.6187 55.2156C59.1904 55.6481 58.7592 55.9735 58.6597 55.9388C58.3929 55.8462 58.4621 54.9017 58.8241 53.6997L59.1399 52.651H70.67L70.9454 53.1038C71.3189 53.72 71.5901 55.3082 71.3867 55.69C71.3016 55.8477 71.1863 55.9793 71.1286 55.9793C71.0723 55.9808 70.7017 55.6163 70.3051 55.1708L69.5826 54.3593L68.0337 54.2797L66.4834 54.2002L66.4863 59.176C66.4892 61.9112 66.5497 64.4093 66.6233 64.726C66.7069 65.0862 66.9218 65.4391 67.1987 65.6662C67.441 65.8673 67.6386 66.145 67.6386 66.2839C67.6371 66.5153 67.4208 66.537 65.122 66.537C63.54 66.537 62.5723 66.482 62.5146 66.3866ZM44.7674 82.7185C44.7025 82.6129 44.8669 82.38 45.1943 82.1167C45.8591 81.5815 45.9485 81.408 46.9941 78.5917C48.6958 74.0108 48.9208 73.046 48.5848 71.7442C48.5387 71.5634 48.7752 71.52 49.988 71.4867L51.4489 71.4448L51.9003 72.3546C52.1484 72.8536 52.9675 74.9467 53.7203 77.005C54.4731 79.0633 55.2274 80.9726 55.3961 81.246C55.5648 81.5193 55.9542 81.9113 56.2628 82.1167C57.193 82.7329 56.8527 82.8819 54.5077 82.8819C53.4131 82.8819 52.4152 82.8429 52.2897 82.7937C51.9739 82.6722 52.0042 82.3438 52.3503 82.1587C52.7123 81.9649 52.7267 81.3776 52.3964 80.3275L52.1527 79.5551H47.8926L47.7368 80.0975C47.6517 80.3954 47.5421 80.9437 47.496 81.3139C47.4138 81.9591 47.4282 81.9967 47.8709 82.2267C48.6843 82.649 48.3497 82.8067 46.5456 82.8501C45.3674 82.879 44.8424 82.84 44.7674 82.7185ZM53.0713 66.5746C50.7307 66.5529 48.7333 66.5052 48.6295 66.4661C48.5069 66.4198 48.6165 66.2419 48.9526 65.9468C49.2669 65.6691 49.5222 65.2728 49.6203 64.9083C49.8207 64.1605 49.6462 54.3101 49.4241 53.8834C49.3434 53.7257 49.1242 53.477 48.9381 53.3309C48.7521 53.1833 48.6007 52.9707 48.6007 52.8579C48.6007 52.6872 49.0232 52.651 51.0408 52.651C52.382 52.651 53.5833 52.6901 53.7088 52.7393C54.0708 52.8781 53.9799 53.1124 53.3511 53.6592L52.7642 54.1698L52.682 56.4841C52.6358 57.757 52.6474 60.2145 52.7065 61.9445L52.8146 65.0905H54.2828C55.8172 65.0905 57.1353 64.836 57.7757 64.415C57.979 64.282 58.3395 63.8263 58.5775 63.4025C58.8616 62.8977 59.1053 62.6316 59.2842 62.6316C59.7644 62.6316 59.786 63.2911 59.349 64.645C58.7203 66.5934 58.6539 66.6874 57.9343 66.6484C57.5997 66.6296 55.412 66.5963 53.0713 66.5746ZM34.3233 82.6505C34.3233 82.5232 34.518 82.2368 34.756 82.014L35.1886 81.609L35.1771 77.9423C35.1612 73.357 35.0891 72.7018 34.5584 72.2765C34.2829 72.0566 34.1907 71.8816 34.257 71.7066C34.3464 71.4752 34.6795 71.4549 38.2864 71.4549C41.2615 71.4549 42.2537 71.4983 42.3605 71.6357C42.5494 71.8773 42.832 73.0648 42.832 73.6159C42.832 74.1988 42.5753 74.1815 41.9725 73.5581C41.3149 72.8768 40.4568 72.6121 38.9123 72.6121H37.6403V76.0836H39.2541C40.7135 76.0836 40.8981 76.0532 41.2024 75.7668C41.7317 75.2692 41.9019 75.586 41.8586 76.9891C41.837 77.6371 41.7591 78.2301 41.6841 78.3053C41.5976 78.3921 41.3899 78.275 41.1217 77.9857L40.6977 77.53H37.6403V79.1761C37.6403 80.0801 37.6821 81.0333 37.734 81.2937L37.8292 81.7652L39.4459 81.6857C41.2385 81.5974 41.8269 81.3877 42.8205 80.4895C43.1234 80.2146 43.4536 79.989 43.5531 79.989C43.8286 79.989 43.6497 80.7744 43.119 81.9055L42.6604 82.8819H38.4926C34.7675 82.8819 34.3233 82.8573 34.3233 82.6505ZM68.3106 82.785C68.1375 82.6114 68.2068 82.4697 68.6827 82.0242L69.1514 81.5844L69.1932 77.2783L69.2336 72.9737L68.3279 72.9853C66.9492 73.0026 66.9507 73.0026 66.2137 73.6926C65.6859 74.1887 65.484 74.3001 65.3542 74.1699C65.1119 73.9269 65.1523 73.5349 65.5287 72.4674C65.8013 71.6936 65.9152 71.5287 66.1719 71.5374C66.3435 71.5432 68.4 71.5591 70.7406 71.5735L74.9993 71.5996L75.1363 71.9597C75.2113 72.1579 75.3151 72.7437 75.3685 73.2615C75.4594 74.1554 75.4493 74.2032 75.158 74.2032C74.9662 74.2032 74.7268 74.0151 74.5249 73.7042C74.0951 73.046 73.7374 72.9014 72.5332 72.9014H71.5309L71.5324 76.843C71.5324 81.055 71.616 81.7291 72.1871 82.1037C72.3818 82.2324 72.5404 82.4595 72.5404 82.6085C72.5404 82.8631 72.402 82.8819 70.4738 82.8819C69.336 82.8819 68.3625 82.8385 68.3106 82.785ZM57.7858 82.7893C57.7353 82.7373 57.8824 82.4783 58.1146 82.2136C58.3468 81.9475 58.5833 81.489 58.6381 81.1924C58.6929 80.8959 58.7015 78.8694 58.6583 76.6896L58.5761 72.7235L58.1146 72.2461C57.8607 71.9843 57.6978 71.6979 57.7511 71.6126C57.9098 71.3537 61.3161 71.4057 61.6608 71.6704C61.9319 71.8802 61.9247 71.9004 61.4358 72.3112L60.9311 72.735L60.8806 75.748C60.8532 77.4042 60.8763 79.3685 60.9325 80.1134L61.032 81.4658L62.5679 81.408C64.3865 81.3385 64.8278 81.1534 65.422 80.2103C65.8633 79.5088 66.1041 79.4032 66.3204 79.8096C66.4185 79.9919 66.3377 80.4114 66.0392 81.2763C65.8085 81.9432 65.5474 82.5767 65.4566 82.6852C65.3282 82.8414 64.5379 82.8819 61.5858 82.8819C59.5466 82.8819 57.8362 82.84 57.7858 82.7893ZM8.76545 81.2749C7.58433 81.1071 7.10986 80.8222 6.92959 80.1698C6.55319 78.8116 6.83729 78.5773 7.7819 79.4639C8.56499 80.1973 8.98466 80.3564 9.75766 80.2117C10.3763 80.0946 11.1046 79.4234 11.1046 78.9692C11.1046 78.5266 10.2711 77.7803 9.4274 77.4664C8.40347 77.086 7.37377 76.3946 7.13293 75.9274C7.01756 75.7032 6.92238 75.2866 6.92238 75.0016C6.92238 73.263 8.69911 72.1391 11.0498 72.3922C11.8257 72.4747 12.0175 72.5542 12.3276 72.9231C12.5612 73.2022 12.691 73.5349 12.691 73.8531C12.691 74.4404 12.4877 74.4824 11.9771 73.9992C11.0426 73.1155 9.37116 73.3093 8.9414 74.3493C8.63422 75.0928 8.91832 75.4023 10.5436 76.0908C12.1314 76.762 12.8958 77.4389 13.0587 78.3169C13.4308 80.3043 11.4652 81.6582 8.76545 81.2749ZM2.25268 81.1867C2.20076 81.1346 2.35363 80.9133 2.59303 80.6934L3.02856 80.2942V73.924L2.59159 73.4235C2.35075 73.1487 2.20653 72.8927 2.26999 72.8522C2.33344 72.8131 3.07327 72.735 3.9126 72.6772C5.53358 72.5687 5.87105 72.6772 5.43263 73.1632C4.94807 73.7013 4.89615 74.1844 4.99566 77.2002L5.09373 80.1626L5.53358 80.5748C5.86239 80.8829 5.92008 81.0044 5.76289 81.055C5.39802 81.1707 2.35075 81.2865 2.25268 81.1867ZM42.9763 47.5884C41.5298 47.3917 38.6498 46.5933 36.9437 45.9149C33.3311 44.4786 30.2939 42.643 28.4163 40.7612C27.2106 39.5519 25.9588 38.0361 25.9588 37.7829C25.9588 37.7077 25.8377 37.4922 25.6891 37.3013C25.4007 36.931 24.994 36.2309 24.5902 35.4368C26.465 39.011 29.2873 41.8359 32.91 43.7062C33.5374 44.0302 34.3551 44.3817 34.7271 44.4872C35.5982 44.7317 37.1874 44.6955 37.4586 44.4236C37.7037 44.1777 37.5956 43.6382 37.199 43.1319C37.0447 42.9366 36.9192 42.7023 36.9192 42.6112C36.9192 42.5201 36.687 41.9588 36.4015 41.3644C35.7136 39.9266 34.9002 37.8249 34.9002 37.4864C34.9002 37.2637 34.2555 35.1591 33.5806 33.1123C33.8604 33.9455 34.1532 34.838 34.4618 35.7998C35.1728 38.01 35.7813 39.578 36.4519 40.9348C37.349 42.7501 37.5134 42.9844 38.7911 44.2659C40.3919 45.8744 41.4274 46.5962 42.9056 47.1372C43.9497 47.519 44.3809 47.7519 43.9742 47.7143C43.8617 47.7042 43.4118 47.6463 42.9763 47.5884ZM40.813 60.9812C40.813 60.9479 40.5491 60.2796 40.2261 59.4985C39.903 58.716 39.4646 57.6355 39.2526 57.0989C39.0406 56.5622 38.8344 56.1225 38.794 56.124C38.7017 56.1254 36.775 60.66 36.775 60.877C36.775 60.9913 37.3922 61.0405 38.794 61.0405C39.9045 61.0405 40.813 61.013 40.813 60.9812ZM49.7861 47.937C50.575 46.5976 52.3012 43.3576 53.9208 40.1696C55.0457 37.958 56.1893 35.8346 56.4647 35.4513C56.5253 35.3674 56.583 35.2835 56.6364 35.2039C56.2311 35.9792 55.7336 36.9787 55.0312 38.4035C52.2219 44.1068 51.3408 46.0263 51.3408 46.4457C51.3408 46.9549 51.4907 46.9694 52.7829 46.5904C54.2727 46.1536 56.4792 45.1353 58.1189 44.1271C58.6352 43.8103 59.2467 43.4429 59.4788 43.3113C60.3038 42.8412 62.1786 41.1749 63.2054 39.9989C64.1139 38.9575 64.6591 38.3051 65.0528 37.7439C62.5708 41.7882 58.615 44.7375 52.6863 47.075C50.624 47.8879 49.6433 48.1786 49.7861 47.937ZM51.5657 78.1448C51.074 76.8213 50.1034 74.4925 50.0443 74.4939C50.0039 74.4939 49.6794 75.1853 49.3217 76.0272C48.9641 76.8704 48.592 77.7484 48.4925 77.9784L48.3108 78.3979H49.9851C51.5196 78.3979 51.6523 78.3762 51.5657 78.1448ZM56.8671 31.9725C55.7999 33.3279 54.5683 35.1533 53.5184 36.9425C52.6127 38.4845 50.2952 43.1088 49.5366 44.885C49.1472 45.7934 48.9482 46.1145 48.8372 46.0031C48.4911 45.656 48.8862 39.3596 49.3131 38.4035C49.3708 38.2747 49.4919 37.8683 49.6073 37.4228C49.0434 39.97 48.8314 43.2057 49.2266 43.7481C49.4083 43.9969 49.4429 43.9839 49.7861 43.5225C49.988 43.2534 50.7379 41.8778 51.4547 40.4676C53.0151 37.3938 54.5971 34.8134 56.0552 32.9662C56.3032 32.6524 56.5772 32.3168 56.8671 31.9725ZM36.4909 35.2647C36.5832 35.5106 36.6712 35.7463 36.7462 35.9445C37.711 38.5206 38.8128 40.725 39.5858 41.6218C40.0919 42.2105 40.6429 42.4651 40.4784 42.0341C39.9146 40.563 39.3824 37.294 39.3752 35.2647C39.3738 34.9913 39.368 34.7179 39.3565 34.4431C39.4156 35.0506 39.4761 35.6783 39.5223 36.1615C39.7372 38.4194 40.1439 40.3735 40.7438 42.0384C41.0193 42.8021 41.2457 43.4849 41.2457 43.5557C41.2457 43.8537 40.901 43.6309 40.1626 42.8542C39.0118 41.6421 37.0245 37.6672 36.6365 35.7998C36.6077 35.6639 36.5558 35.473 36.4909 35.2647ZM47.4989 48.4375C48.0022 48.5879 47.956 48.0904 47.4469 46.816C46.8355 45.2842 46.6148 44.5263 46.5442 43.1985C46.6321 44.7924 46.9653 45.7138 48.1219 48.4202C48.2171 48.6444 47.9906 48.6472 47.4989 48.4375ZM33.1134 27.7851C33.5128 28.1264 34.9838 31.2435 35.9054 33.7025C35.9068 33.7039 35.9068 33.7054 35.9068 33.7068C35.7525 33.3206 35.5809 32.891 35.4439 32.5453C34.7791 30.879 33.3758 28.0121 33.1134 27.7851ZM50.7985 33.3727C50.9615 32.8838 51.1115 32.4614 51.2225 32.1837C51.7619 30.8443 52.3993 29.5859 53.1247 28.4229C52.2306 29.8853 51.459 31.5285 50.7985 33.3727ZM38.507 29.016C37.7932 26.3936 36.6596 23.8536 35.167 21.6029C36.7 23.9158 37.8162 26.395 38.507 29.016ZM62.0343 26.6105C61.6998 26.8203 60.4884 27.9977 59.2986 29.2387C60.5532 27.8964 61.6724 26.8058 62.0343 26.6105ZM23.7841 33.7126C23.6197 33.3293 23.4769 32.9619 23.3629 32.6365C22.9043 31.313 22.5986 30.1919 22.4111 29.0608C22.4299 29.1563 22.4501 29.2561 22.4717 29.3631C22.7803 30.8993 23.2202 32.3515 23.7841 33.7126ZM68.4707 23.3329C68.4563 23.5397 68.4433 23.7422 68.4346 23.9389C68.3755 25.1192 68.2933 26.2258 68.1909 27.2542C68.2601 26.5107 68.3178 25.7152 68.3668 24.856C68.3957 24.3439 68.4303 23.8319 68.4707 23.3329ZM59.7831 30.218C60.161 29.6611 60.6874 28.8945 61.1215 28.2696C61.7026 27.4336 62.1526 26.6756 62.1238 26.5859C62.1223 26.583 62.1209 26.5802 62.118 26.5787C62.1439 26.5758 62.1569 26.5888 62.1569 26.6163C62.1569 26.7074 61.6868 27.4582 61.1114 28.2855C60.6816 28.9017 60.1595 29.664 59.7831 30.218ZM67.5376 31.5473C67.4093 32.1316 67.2679 32.6668 67.1151 33.1514C66.9175 33.782 66.6968 34.3924 66.4545 34.9812C66.9074 33.8616 67.2607 32.7551 67.5376 31.5473ZM56.981 34.5573C57.0445 34.3982 57.3012 33.9614 57.6228 33.4479C57.4122 33.7878 57.2074 34.1408 56.981 34.5573ZM46.6523 47.9689C46.7864 48.06 46.909 48.1395 47.0201 48.2061C46.6913 48.0253 46.3581 47.7837 46.0279 47.4944C46.2312 47.6666 46.4389 47.8257 46.6523 47.9689ZM22.1688 26.3241C22.1616 26.0001 22.1602 25.6646 22.1645 25.3131C22.1674 25.0701 22.1703 24.8285 22.1732 24.5869C22.166 25.2928 22.1645 25.8584 22.1688 26.3241ZM58.0554 32.7739C58.2227 32.5193 58.3929 32.2676 58.5515 32.0391C58.7188 31.8004 59.1284 31.1972 59.4601 30.6968C59.1284 31.1972 58.7203 31.8004 58.5559 32.0391C58.3727 32.3038 58.2083 32.5439 58.0554 32.7739ZM22.2035 22.2987C22.2208 21.0938 22.241 19.9438 22.2611 18.9053C22.2381 20.2244 22.2193 21.344 22.2035 22.2987ZM43.4752 43.9911C43.4046 43.8407 43.3368 43.6903 43.2719 43.5384C42.4528 41.6103 42.2624 40.2896 42.1095 35.5106C42.2624 40.2925 42.4542 41.616 43.2733 43.5384C43.3382 43.6917 43.406 43.8421 43.4752 43.9911Z" fill="#65690B"/>
<path d="M29.42 91.9945V87.9444H30.2853H31.1505V91.9945V96.0446H30.2853H29.42V91.9945ZM37.8724 95.6424C37.6114 95.1347 34.6117 88.1194 34.6117 88.0139C34.6117 87.9762 35.0588 87.9444 35.6039 87.9444H36.5961L37.359 89.861C38.3123 92.2505 38.7925 93.3484 38.8545 93.2775C38.905 93.2225 40.327 89.6339 40.7106 88.5953L40.924 88.0167L41.9552 87.9748L42.9849 87.9314L42.7556 88.4811C42.6287 88.7819 42.1657 89.9087 41.7259 90.982C40.4827 94.0195 39.7775 95.6743 39.678 95.7828C39.6275 95.8377 39.2526 95.926 38.843 95.9809C38.1205 96.0749 38.0916 96.0663 37.8724 95.6424ZM46.5095 95.8638C46.4734 95.764 46.4273 93.9414 46.4057 91.8137L46.3653 87.9444H47.2493C48.0988 87.9444 48.1377 87.9603 48.2156 88.3422C48.2588 88.5606 48.2574 90.3455 48.2098 92.3084C48.1247 95.7712 48.1132 95.8811 47.8204 95.9592C47.2897 96.1024 46.5744 96.0504 46.5095 95.8638ZM52.4007 95.8247C52.3704 95.7451 52.3632 93.9544 52.3834 91.847L52.4223 88.0167L53.165 87.9734L53.9078 87.93L55.0153 89.3475C55.6239 90.1271 56.4575 91.2062 56.8685 91.7471L57.6141 92.7278L57.653 90.3369L57.6934 87.9444H58.5342H59.3764L59.4658 88.808C59.5149 89.2824 59.5134 91.1078 59.4629 92.8653L59.3706 96.059L58.7159 96.0156C58.0828 95.9737 58.0266 95.9303 56.9002 94.5808C56.2614 93.8141 55.4148 92.7611 55.0182 92.2375C54.6216 91.7153 54.2481 91.2843 54.189 91.2799C54.1298 91.2756 54.0808 92.3069 54.0808 93.5726V95.8724L53.2689 95.9231C52.806 95.9505 52.4339 95.9086 52.4007 95.8247ZM66.1949 95.9173C64.3244 95.3025 63.2746 93.898 63.263 91.9988C63.2544 90.4005 64.0951 89.0177 65.533 88.2655C66.1718 87.93 66.4358 87.8808 67.565 87.8851C68.9264 87.8909 69.7022 88.144 70.2647 88.766C70.4983 89.0264 70.4969 89.0669 70.2272 89.5095C69.8421 90.1459 69.6085 90.2023 68.9725 89.8132C68.573 89.5688 68.201 89.4806 67.5549 89.4733C66.8021 89.4647 66.6002 89.5225 66.1315 89.8812C64.6417 91.0196 64.76 93.4916 66.3391 94.2654C67.0184 94.5967 68.3336 94.5981 68.837 94.2669C69.147 94.0629 69.2234 93.9009 69.2234 93.4453V92.8768L68.4663 92.8334L67.7092 92.79V92.0668V91.3436L69.3316 91.3031L70.954 91.2611V92.9361C70.954 94.5041 70.9324 94.6328 70.6122 94.9539C69.9258 95.6425 69.0922 95.9491 67.7813 95.9939C67.1078 96.0171 66.3939 95.9824 66.1949 95.9173ZM19.9017 91.9222V87.9444H20.7641H21.6266L21.6655 91.1628L21.7044 94.3811L23.6153 94.4216L25.5261 94.4621V95.181V95.8999H22.7139H19.9017V91.9222ZM46.6523 47.9688C45.275 47.0373 44.1184 45.52 43.2733 43.5383C42.4542 41.616 42.2624 40.2925 42.1095 35.5105C41.922 29.5887 41.4245 27.4914 39.3997 24.0835C38.6137 22.7615 38.0368 22.0324 36.6625 20.6279C35.428 19.3652 35.4136 19.3435 35.9097 19.4332C36.7043 19.5778 40.0097 21.2673 41.7273 22.4071C42.5868 22.977 43.8905 24.0271 44.6246 24.7402C45.3601 25.4533 45.9975 26.0362 46.0408 26.0362C46.0855 26.0362 46.4042 25.799 46.7489 25.5083C47.0921 25.2175 48.6727 24.1182 50.2591 23.0638C54.3332 20.3546 55.3614 19.4201 57.4555 16.5186C58.227 15.4511 59.2178 13.1744 59.4298 11.9868C59.5725 11.1898 59.5697 10.6662 59.4197 9.35717C59.1731 7.21353 59.2899 6.36301 60.0312 4.87895C60.484 3.96913 60.9123 3.39778 61.8713 2.42577C62.5578 1.72713 63.1866 1.15723 63.2688 1.15723C63.351 1.15723 63.6005 1.88913 63.824 2.78449C64.1499 4.08196 64.2336 4.75022 64.2394 6.07517C64.248 7.63155 64.2206 7.795 63.824 8.60646C63.55 9.16769 62.9284 9.96902 62.0675 10.8731C60.6412 12.3687 60.5734 12.4728 59.5552 14.6816C58.8356 16.2437 56.9954 19.5344 55.6715 21.6245C55.2187 22.3405 53.7996 24.5681 52.5175 26.5743C49.1227 31.8915 47.6776 34.8061 46.847 38.0172C46.5773 39.0572 46.521 39.6662 46.5153 41.5856C46.5095 44.0995 46.6263 44.762 47.4469 46.816C48.155 48.5879 47.9661 48.8598 46.6523 47.9688ZM51.3407 46.4457C51.3407 46.0262 52.2219 44.1068 55.0312 38.4034C56.9752 34.456 57.3473 33.7849 58.5558 32.039C58.7202 31.8003 59.1284 31.1972 59.4601 30.6967C59.7932 30.1977 60.5359 29.1128 61.1113 28.2855C61.6867 27.4581 62.1569 26.7074 62.1569 26.6163C62.1569 26.1346 58.1837 30.27 56.0551 32.9662C54.5971 34.8133 53.0151 37.3938 51.4547 40.4675C50.7379 41.8778 49.988 43.2534 49.7861 43.5224C49.4428 43.9838 49.4082 43.9968 49.2265 43.748C48.7996 43.1637 49.0809 39.4434 49.7471 36.8354C51.4705 30.1008 54.2683 25.5893 58.5645 22.6139C61.2613 20.7465 65.3873 19.1034 68.3437 18.7172L69.1211 18.6159L69.023 19.0094C68.7778 19.9886 68.5053 22.4215 68.3668 24.8559C68.0712 30.0458 67.4525 32.9083 65.9079 36.2337C65.3469 37.443 64.933 38.0201 63.2053 39.9988C62.1785 41.1748 60.3037 42.8411 59.4788 43.3112C59.2466 43.4428 58.6351 43.8102 58.1189 44.127C56.4791 45.1352 54.2726 46.1535 52.7829 46.5903C51.4907 46.9693 51.3407 46.9548 51.3407 46.4457ZM34.7271 44.4872C34.355 44.3816 33.5373 44.0301 32.91 43.7061C27.4269 40.8754 23.7782 35.8605 22.4717 29.3631C22.1068 27.5492 22.1097 27.6837 22.2683 18.4583C22.3101 16.0007 22.375 13.9598 22.4125 13.9236C22.5236 13.8108 24.8051 14.3156 25.9588 14.7076C30.0401 16.0933 32.9677 18.2861 35.1669 21.6028C37.8349 25.6269 39.3593 30.5737 39.3752 35.2646C39.3824 37.294 39.9145 40.563 40.4784 42.034C40.6428 42.465 40.0919 42.2105 39.5857 41.6218C38.8127 40.725 37.7109 38.5206 36.7461 35.9444C36.5082 35.308 36.1289 34.2984 35.9053 33.7024C34.9824 31.2377 33.5056 28.1119 33.1104 27.7835C32.985 27.6779 32.8811 27.5304 32.8811 27.4552C32.8811 27.1876 30.6126 24.0965 29.5353 22.8931C28.8604 22.1395 28.8474 22.2205 29.4762 23.2692C30.5016 24.9774 31.3986 26.9822 32.5913 30.2309C33.4061 32.4527 34.9001 37.1464 34.9001 37.4863C34.9001 37.8248 35.7135 39.9265 36.4014 41.3643C36.687 41.9588 36.9192 42.52 36.9192 42.6111C36.9192 42.7023 37.0446 42.9366 37.1989 43.1319C37.5955 43.6381 37.7037 44.1776 37.4585 44.4235C37.1874 44.6955 35.5982 44.7316 34.7271 44.4872ZM44.7472 21.1024C43.9295 20.8652 42.5248 19.6733 42.1239 18.8763C41.6076 17.8522 41.5932 15.9038 42.0936 14.7915C43.0253 12.7158 45.8403 11.6295 47.8089 12.5842C48.6958 13.0153 49.6909 13.9178 50.0428 14.6107C50.6312 15.765 50.7278 17.6237 50.2591 18.7519C49.9433 19.5127 49.0131 20.4153 48.0959 20.8521C47.3863 21.1892 47.0489 21.26 46.2211 21.2499C45.6658 21.2427 45.0024 21.1761 44.7472 21.1024ZM60.5215 16.3088C60.6426 15.6507 61.505 14.0263 62.1035 13.3248C62.8881 12.4048 64.385 11.738 65.9209 11.6252C67.2679 11.524 68.5024 11.6469 68.5024 11.8812C68.5024 11.9608 68.2269 12.4945 67.8909 13.0659C67.1453 14.333 66.1127 15.4019 65.2777 15.7722C64.4211 16.1526 61.7863 16.7789 61.0421 16.7789C60.4335 16.7789 60.4335 16.7789 60.5215 16.3088ZM55.9744 13.3798C53.7405 11.5008 53.3871 10.8007 53.2559 7.99895C53.2098 7.02115 53.2213 6.21981 53.2804 6.21981C53.341 6.21981 53.853 6.46426 54.4197 6.76223C56.3479 7.77764 57.7987 9.68696 57.9458 11.401C58.0064 12.0982 57.6992 13.7255 57.4007 14.2983C57.3257 14.44 56.9363 14.1898 55.9744 13.3798Z" fill="#8D983F"/>
</g>
<mask id="mask1_296_16150" style="mask-type:luminance" maskUnits="userSpaceOnUse" x="0" y="0" width="91" height="51">
<path d="M91 0H0V50.1919H91V0Z" fill="white"/>
</mask>
<g mask="url(#mask1_296_16150)">
<path d="M73.1173 65.9369C73.1173 65.7547 73.3178 65.4495 73.586 65.2253L74.0547 64.8333V53.7795L73.5067 53.3181C73.1187 52.9912 72.9861 52.7843 73.0539 52.6093C73.1375 52.3894 73.4274 52.362 75.729 52.362H78.3091V52.7091C78.3091 52.9507 78.1605 53.1445 77.8259 53.3427C77.2217 53.6999 77.1553 54.0051 77.1553 56.4294V58.2924H83.645L83.6364 56.6652C83.6234 54.2814 83.5181 53.8171 82.8562 53.2081C82.5303 52.9073 82.3442 52.6281 82.4048 52.5298C82.4769 52.4126 83.2686 52.362 85.018 52.362C87.4595 52.362 87.5331 52.3706 87.6989 52.6816C87.8417 52.9478 87.8273 53.0259 87.6153 53.1517C86.8048 53.632 86.7529 53.7361 86.6519 55.0596C86.5178 56.8228 86.5221 60.5793 86.6591 62.9023L86.7745 64.8376L87.3254 65.3019C87.709 65.6245 87.8489 65.8386 87.784 66.0064C87.7033 66.219 87.3918 66.2479 85.1809 66.2479C83.159 66.2479 82.637 66.2074 82.4971 66.0367C82.2793 65.7749 82.3918 65.584 82.9283 65.3063C83.5239 64.9967 83.6595 64.3126 83.6133 61.8782L83.5729 59.8112L77.1481 59.7331L77.2274 65.0184L77.8461 65.299C78.322 65.5146 78.4562 65.6491 78.423 65.8776C78.3826 66.164 78.2817 66.177 75.7492 66.2147C73.1216 66.2537 73.1173 66.2537 73.1173 65.9369ZM2.55121 66.1553C2.37238 65.976 2.44449 65.8386 2.99251 65.3207L3.53331 64.8087V53.9299L2.89588 53.3846C2.45026 53.0027 2.28729 52.7684 2.35075 52.6006C2.43151 52.3909 2.75743 52.362 5.04758 52.362C8.06745 52.362 8.20734 52.4256 7.27571 53.3817L6.72625 53.9473L6.59789 55.9159C6.52723 56.9993 6.50415 57.9771 6.54742 58.0885C6.61087 58.2548 7.21369 58.2924 9.87447 58.2924H13.1236L13.1121 56.8821C13.1049 56.1068 13.0515 55.0871 12.9939 54.617C12.9001 53.8692 12.8208 53.7057 12.3564 53.3152C12.0651 53.0693 11.8257 52.7525 11.8257 52.6122C11.8257 52.375 12.019 52.3576 14.4562 52.3952C16.8833 52.4314 17.0896 52.4545 17.1372 52.7019C17.1689 52.8668 17.0131 53.117 16.729 53.3542C16.4031 53.6276 16.2344 53.9256 16.145 54.3885C15.9935 55.1753 15.9834 62.2817 16.132 63.7644C16.2315 64.7581 16.2719 64.8521 16.781 65.2831C17.1775 65.6173 17.2987 65.8111 17.2266 65.9977C17.1372 66.232 16.905 66.2508 14.5153 66.2147C12.1632 66.1799 11.8964 66.151 11.8531 65.9239C11.8214 65.7605 11.9815 65.5666 12.3074 65.3743C12.5828 65.2108 12.8554 64.9664 12.9131 64.8304C12.9693 64.6959 13.0487 63.5271 13.089 62.234L13.1611 59.8835L11.3036 59.8821C10.2826 59.8821 8.81304 59.8401 8.04005 59.7881L6.63395 59.6955V64.9418L7.21946 65.3135C7.59731 65.5522 7.78911 65.772 7.75883 65.9297C7.71701 66.1481 7.42858 66.1799 5.1817 66.2147C3.78858 66.2363 2.60601 66.2089 2.55121 66.1553ZM34.0349 66.2537C32.2899 66.1843 32.088 66.1481 32.088 65.9167C32.088 65.7677 32.3259 65.5232 32.6519 65.3381C32.9605 65.1631 33.3326 64.8564 33.4782 64.6568C33.7681 64.259 35.2492 60.3073 36.377 56.9183C37.1052 54.7327 37.2985 53.4613 37.0173 52.6874L36.9005 52.362H41.0784L41.1808 52.8321C41.2385 53.091 41.5312 53.9531 41.8355 54.7486C42.1384 55.5442 43.0094 57.8874 43.7723 59.9558C44.5352 62.0243 45.301 63.977 45.4755 64.2952C45.6543 64.6221 46.1043 65.0835 46.511 65.3569C46.9076 65.6231 47.2306 65.9152 47.2306 66.0078C47.2306 66.1279 46.4043 66.1872 44.3103 66.2147C41.475 66.2523 41.3899 66.245 41.3899 65.9659C41.3899 65.7908 41.5615 65.5883 41.8225 65.4524C42.3605 65.1732 42.3619 64.9548 41.8456 63.355L41.4476 62.1255H36.0943L35.7857 63.3029C35.3574 64.9403 35.3747 65.1486 35.9818 65.5247C36.5212 65.8588 36.6293 66.1626 36.2587 66.3043C36.1332 66.3535 36.0193 66.3796 36.0063 66.3622C35.9933 66.3463 35.1064 66.2971 34.0349 66.2537ZM24.2643 66.2841L19.4691 66.2436V65.9152C19.4691 65.7041 19.6234 65.4958 19.9003 65.3309C20.1383 65.1906 20.382 64.8998 20.4411 64.6857C20.5709 64.2229 20.5378 55.1782 20.4036 54.2597C20.3387 53.8113 20.183 53.509 19.87 53.2226C19.5903 52.9651 19.4619 52.7352 19.5167 52.5905C19.5946 52.388 20.1671 52.362 24.4359 52.362H29.2686L29.4878 52.7858C29.6075 53.0201 29.7849 53.671 29.8815 54.2322C30.1281 55.6801 29.9536 55.7987 28.9426 54.8716C27.9879 53.9965 27.4515 53.8243 25.3344 53.7101L23.6961 53.6218L23.5995 54.7862C23.5461 55.427 23.5461 56.4135 23.598 56.9776L23.6932 58.0031H27.574L28.0067 57.5374C28.4235 57.0904 28.448 57.0832 28.6412 57.3479C28.8864 57.6835 28.9225 60.0441 28.6888 60.4795C28.5417 60.7557 28.5114 60.7456 27.9678 60.2538L27.3995 59.7389H23.6442L23.7235 64.8738L25.0214 64.9172C26.566 64.9693 28.011 64.7465 28.6773 64.3545C28.9441 64.1983 29.4762 63.8034 29.8613 63.478C30.5824 62.869 31.0064 62.814 31.0064 63.3304C31.0064 63.6747 29.88 66.138 29.658 66.2812C29.5671 66.3405 29.394 66.3738 29.2758 66.3564C29.1575 66.339 26.902 66.3058 24.2643 66.2841ZM20.3085 82.412C20.0359 82.1951 19.6552 81.1811 18.3255 77.1383C17.2251 73.7926 16.7838 72.783 16.1176 72.08C15.3532 71.2729 15.558 71.1659 17.8828 71.1659C20.1715 71.1659 20.4368 71.2888 19.6278 71.9715C19.3812 72.1784 19.1807 72.4575 19.1807 72.5892C19.1807 72.7208 19.3754 73.2415 19.6133 73.7449C19.8499 74.2483 20.1484 75.0293 20.2739 75.4806C21.0209 78.1493 21.53 79.5755 21.6756 79.4063C21.8083 79.253 23.063 75.7829 23.373 74.7097C23.5576 74.0732 23.9081 73.0318 24.1533 72.3953C24.5152 71.4551 24.6623 71.2295 24.9349 71.1905C25.1195 71.163 25.3257 71.1962 25.3935 71.2642C25.4598 71.3308 26.0973 73.0578 26.8097 75.1017C28.2446 79.2212 28.3889 79.5625 28.5547 79.253C28.6585 79.062 30.5636 73.6596 30.7843 72.9349C30.8622 72.676 30.7713 72.4923 30.3617 72.0815C29.5484 71.2657 29.7041 71.1659 31.7952 71.1659C33.8388 71.1659 34.0464 71.3004 33.0413 71.9686C32.4543 72.3577 32.2437 72.741 31.2573 75.2159C30.9876 75.8914 30.529 77.1614 30.2377 78.0365C29.1676 81.2607 28.7638 82.2211 28.3975 82.4106C27.9331 82.6493 27.1875 82.6406 26.9828 82.3932C26.8155 82.1922 26.0165 80.0529 25.5233 78.4849C25.1527 77.3075 24.4648 75.6513 24.3465 75.6499C24.2297 75.6499 23.9514 76.3904 22.8524 79.6276C22.3938 80.98 21.9222 82.2009 21.804 82.3397C21.5487 82.6377 20.6445 82.6811 20.3085 82.412ZM76.7587 82.4988C76.4963 82.3889 76.5381 82.0591 76.8438 81.8421C77.4106 81.4386 77.4438 81.1522 77.4438 76.7304V72.4387L77.0111 72.0337C76.4631 71.5202 76.4674 71.3684 77.0284 71.2555C77.6067 71.1398 80.3771 71.1384 80.6771 71.2541C81.0362 71.3929 80.9439 71.717 80.4737 71.96C79.9647 72.2247 79.9344 72.3433 79.8421 74.4565L79.7714 76.0838H84.943V74.2685C84.943 72.4923 84.9343 72.446 84.5608 72.0988C84.3517 71.9036 84.1238 71.7444 84.056 71.7444C83.9883 71.7444 83.9335 71.6504 83.9335 71.5347C83.9335 71.2324 84.7093 71.1239 86.4226 71.189C88.2974 71.2599 88.4301 71.338 87.8042 71.986L87.3225 72.4836V76.6349C87.3225 78.9174 87.3716 80.9627 87.4321 81.1797C87.4956 81.4067 87.7307 81.6729 87.983 81.8031C88.2585 81.9463 88.4041 82.1213 88.3753 82.2761C88.3349 82.4901 88.0652 82.5249 86.2005 82.561C84.3156 82.5957 84.0604 82.5726 83.9782 82.3571C83.9133 82.1864 84.0431 81.9868 84.4137 81.6888L84.943 81.2635V77.3856H79.8954V81.5268L80.4103 81.7727C80.7578 81.939 80.9093 82.101 80.8775 82.2703C80.8343 82.4916 80.6021 82.5234 78.8845 82.548C77.8144 82.5625 76.8583 82.5408 76.7587 82.4988ZM62.5146 66.0975C62.4627 66.015 62.6545 65.6896 62.9386 65.3743L63.4549 64.8L63.4563 60.3536C63.4563 57.9077 63.4981 55.4661 63.5486 54.9294L63.6409 53.9531H62.4843C60.7551 53.9531 60.4941 54.0413 59.6187 54.9265C59.1904 55.359 58.7592 55.6845 58.6597 55.6498C58.3929 55.5572 58.4621 54.6126 58.8241 53.4106L59.1399 52.362H70.67L70.9454 52.8147C71.3189 53.4309 71.5901 55.0191 71.3867 55.401C71.3016 55.5586 71.1863 55.6903 71.1286 55.6903C71.0723 55.6917 70.7017 55.3272 70.3051 54.8817L69.5826 54.0702L68.0337 53.9907L66.4834 53.9111L66.4863 58.8869C66.4892 61.6222 66.5497 64.1202 66.6233 64.437C66.7069 64.7971 66.9218 65.1501 67.1987 65.3772C67.441 65.5782 67.6386 65.8559 67.6386 65.9948C67.6371 66.2262 67.4208 66.2479 65.122 66.2479C63.54 66.2479 62.5723 66.193 62.5146 66.0975ZM44.7674 82.4294C44.7025 82.3238 44.8669 82.0909 45.1943 81.8277C45.8591 81.2925 45.9485 81.1189 46.9941 78.3027C48.6958 73.7217 48.9208 72.757 48.5848 71.4551C48.5387 71.2743 48.7752 71.231 49.988 71.1977L51.4489 71.1557L51.9003 72.0656C52.1484 72.5646 52.9675 74.6576 53.7203 76.7159C54.4731 78.7742 55.2274 80.6835 55.3961 80.9569C55.5648 81.2303 55.9542 81.6223 56.2628 81.8277C57.193 82.4439 56.8527 82.5928 54.5077 82.5928C53.4131 82.5928 52.4152 82.5538 52.2897 82.5046C51.9739 82.3831 52.0042 82.0548 52.3503 81.8696C52.7123 81.6758 52.7267 81.0885 52.3964 80.0384L52.1527 79.266H47.8926L47.7368 79.8084C47.6517 80.1064 47.5421 80.6546 47.496 81.0249C47.4138 81.67 47.4282 81.7076 47.8709 81.9376C48.6843 82.36 48.3497 82.5176 46.5456 82.561C45.3674 82.59 44.8424 82.5509 44.7674 82.4294ZM53.0713 66.2855C50.7307 66.2638 48.7333 66.2161 48.6295 66.177C48.5069 66.1308 48.6165 65.9528 48.9526 65.6578C49.2669 65.3801 49.5222 64.9837 49.6203 64.6192C49.8207 63.8714 49.6462 54.021 49.4241 53.5943C49.3434 53.4367 49.1242 53.1879 48.9381 53.0418C48.7521 52.8943 48.6007 52.6816 48.6007 52.5688C48.6007 52.3981 49.0232 52.362 51.0408 52.362C52.382 52.362 53.5833 52.401 53.7088 52.4502C54.0708 52.5891 53.9799 52.8234 53.3511 53.3701L52.7642 53.8807L52.682 56.1951C52.6358 57.4679 52.6474 59.9255 52.7065 61.6554L52.8146 64.8015H54.2828C55.8172 64.8015 57.1353 64.5469 57.7757 64.126C57.979 63.9929 58.3395 63.5373 58.5775 63.1135C58.8616 62.6086 59.1053 62.3425 59.2842 62.3425C59.7644 62.3425 59.786 63.0021 59.349 64.356C58.7203 66.3043 58.6539 66.3984 57.9343 66.3593C57.5997 66.3405 55.412 66.3072 53.0713 66.2855ZM34.3233 82.3614C34.3233 82.2341 34.518 81.9477 34.756 81.725L35.1886 81.32L35.1771 77.6532C35.1612 73.0679 35.0891 72.4127 34.5584 71.9874C34.2829 71.7676 34.1907 71.5926 34.257 71.4175C34.3464 71.1861 34.6795 71.1659 38.2864 71.1659C41.2615 71.1659 42.2537 71.2093 42.3605 71.3467C42.5494 71.5882 42.832 72.7758 42.832 73.3269C42.832 73.9098 42.5753 73.8924 41.9725 73.269C41.3149 72.5877 40.4568 72.323 38.9123 72.323H37.6403V75.7945H39.2541C40.7135 75.7945 40.8981 75.7641 41.2024 75.4777C41.7317 74.9802 41.9019 75.2969 41.8586 76.7C41.837 77.348 41.7591 77.941 41.6841 78.0163C41.5976 78.103 41.3899 77.9859 41.1217 77.6966L40.6977 77.241H37.6403V78.887C37.6403 79.7911 37.6821 80.7443 37.734 81.0046L37.8292 81.4762L39.4459 81.3966C41.2385 81.3084 41.8269 81.0987 42.8205 80.2004C43.1234 79.9256 43.4536 79.6999 43.5531 79.6999C43.8286 79.6999 43.6497 80.4854 43.119 81.6165L42.6604 82.5928H38.4926C34.7675 82.5928 34.3233 82.5683 34.3233 82.3614ZM68.3106 82.4959C68.1375 82.3224 68.2068 82.1806 68.6827 81.7351L69.1514 81.2954L69.1932 76.9893L69.2336 72.6846L68.3279 72.6962C66.9492 72.7136 66.9507 72.7136 66.2137 73.4035C65.6859 73.8997 65.484 74.011 65.3542 73.8809C65.1119 73.6379 65.1523 73.2459 65.5287 72.1784C65.8013 71.4045 65.9152 71.2396 66.1719 71.2483C66.3435 71.2541 68.4 71.27 70.7406 71.2845L74.9993 71.3105L75.1363 71.6707C75.2113 71.8688 75.3151 72.4546 75.3685 72.9725C75.4594 73.8664 75.4493 73.9141 75.158 73.9141C74.9662 73.9141 74.7268 73.7261 74.5249 73.4151C74.0951 72.757 73.7374 72.6123 72.5332 72.6123H71.5309L71.5324 76.5539C71.5324 80.766 71.616 81.44 72.1871 81.8146C72.3818 81.9434 72.5404 82.1705 72.5404 82.3195C72.5404 82.574 72.402 82.5928 70.4738 82.5928C69.336 82.5928 68.3625 82.5494 68.3106 82.4959ZM57.7858 82.5003C57.7353 82.4482 57.8824 82.1893 58.1146 81.9246C58.3468 81.6584 58.5833 81.1999 58.6381 80.9034C58.6929 80.6069 58.7015 78.5804 58.6583 76.4006L58.5761 72.4344L58.1146 71.9571C57.8607 71.6953 57.6978 71.4089 57.7511 71.3235C57.9098 71.0646 61.3161 71.1167 61.6608 71.3814C61.9319 71.5911 61.9247 71.6114 61.4358 72.0222L60.9311 72.446L60.8806 75.4589C60.8532 77.1151 60.8763 79.0794 60.9325 79.8243L61.032 81.1768L62.5679 81.1189C64.3865 81.0495 64.8278 80.8643 65.422 79.9212C65.8633 79.2197 66.1041 79.1141 66.3204 79.5206C66.4185 79.7028 66.3377 80.1223 66.0392 80.9873C65.8085 81.6541 65.5474 82.2876 65.4566 82.3961C65.3282 82.5523 64.5379 82.5928 61.5858 82.5928C59.5466 82.5928 57.8362 82.5509 57.7858 82.5003ZM8.76545 80.9858C7.58433 80.818 7.10986 80.5331 6.92959 79.8807C6.55319 78.5225 6.83729 78.2882 7.7819 79.1749C8.56499 79.9082 8.98466 80.0673 9.75766 79.9227C10.3763 79.8055 11.1046 79.1344 11.1046 78.6802C11.1046 78.2376 10.2711 77.4912 9.4274 77.1773C8.40347 76.7969 7.37377 76.1055 7.13293 75.6383C7.01756 75.4141 6.92238 74.9975 6.92238 74.7126C6.92238 72.9739 8.69911 71.85 11.0498 72.1032C11.8257 72.1856 12.0175 72.2652 12.3276 72.634C12.5612 72.9132 12.691 73.2459 12.691 73.5641C12.691 74.1513 12.4877 74.1933 11.9771 73.7102C11.0426 72.8264 9.37116 73.0202 8.9414 74.0602C8.63422 74.8037 8.91832 75.1132 10.5436 75.8017C12.1314 76.4729 12.8958 77.1498 13.0587 78.0278C13.4308 80.0153 11.4652 81.3691 8.76545 80.9858ZM2.25268 80.8976C2.20076 80.8455 2.35363 80.6242 2.59303 80.4044L3.02856 80.0051V73.635L2.59159 73.1345C2.35075 72.8597 2.20653 72.6036 2.26999 72.5631C2.33344 72.5241 3.07327 72.446 3.9126 72.3881C5.53358 72.2796 5.87105 72.3881 5.43263 72.8741C4.94807 73.4122 4.89615 73.8953 4.99566 76.9112L5.09373 79.8735L5.53358 80.2857C5.86239 80.5938 5.92008 80.7153 5.76289 80.766C5.39802 80.8817 2.35075 80.9974 2.25268 80.8976ZM42.9763 47.2994C41.5298 47.1027 38.6498 46.3042 36.9437 45.6258C33.3311 44.1895 30.2939 42.354 28.4163 40.4721C27.2106 39.2629 25.9588 37.747 25.9588 37.4939C25.9588 37.4187 25.8377 37.2031 25.6891 37.0122C25.4007 36.6419 24.994 35.9418 24.5902 35.1477C26.465 38.7219 29.2873 41.5468 32.91 43.4171C33.5374 43.7411 34.3551 44.0926 34.7271 44.1982C35.5982 44.4426 37.1874 44.4065 37.4586 44.1345C37.7037 43.8886 37.5956 43.3491 37.199 42.8429C37.0447 42.6476 36.9192 42.4133 36.9192 42.3221C36.9192 42.231 36.687 41.6698 36.4015 41.0753C35.7136 39.6375 34.9002 37.5358 34.9002 37.1974C34.9002 36.9746 34.2555 34.87 33.5806 32.8233C33.8604 33.6564 34.1532 34.5489 34.4618 35.5108C35.1728 37.721 35.7813 39.2889 36.4519 40.6457C37.349 42.461 37.5134 42.6953 38.7911 43.9769C40.3919 45.5853 41.4274 46.3071 42.9056 46.8481C43.9497 47.23 44.3809 47.4628 43.9742 47.4252C43.8617 47.4151 43.4118 47.3572 42.9763 47.2994ZM40.813 60.6921C40.813 60.6588 40.5491 59.9906 40.2261 59.2095C39.903 58.4269 39.4646 57.3464 39.2526 56.8098C39.0406 56.2732 38.8344 55.8335 38.794 55.8349C38.7017 55.8363 36.775 60.371 36.775 60.5879C36.775 60.7022 37.3922 60.7514 38.794 60.7514C39.9045 60.7514 40.813 60.7239 40.813 60.6921ZM49.7861 47.648C50.575 46.3086 52.3012 43.0685 53.9208 39.8805C55.0457 37.6689 56.1893 35.5455 56.4647 35.1622C56.5253 35.0783 56.583 34.9944 56.6364 34.9148C56.2311 35.6901 55.7336 36.6896 55.0312 38.1144C52.2219 43.8178 51.3408 45.7372 51.3408 46.1567C51.3408 46.6658 51.4907 46.6803 52.7829 46.3013C54.2727 45.8645 56.4792 44.8462 58.1189 43.838C58.6352 43.5212 59.2467 43.1538 59.4788 43.0222C60.3038 42.5521 62.1786 40.8858 63.2054 39.7098C64.1139 38.6684 64.6591 38.016 65.0528 37.4548C62.5708 41.4991 58.615 44.4484 52.6863 46.7859C50.624 47.5988 49.6433 47.8895 49.7861 47.648ZM51.5657 77.8557C51.074 76.5322 50.1034 74.2034 50.0443 74.2049C50.0039 74.2049 49.6794 74.8963 49.3217 75.7381C48.9641 76.5814 48.592 77.4594 48.4925 77.6894L48.3108 78.1088H49.9851C51.5196 78.1088 51.6523 78.0871 51.5657 77.8557ZM56.8671 31.6835C55.7999 33.0388 54.5683 34.8642 53.5184 36.6535C52.6127 38.1954 50.2952 42.8197 49.5366 44.596C49.1472 45.5043 48.9482 45.8254 48.8372 45.7141C48.4911 45.3669 48.8862 39.0705 49.3131 38.1144C49.3708 37.9857 49.4919 37.5792 49.6073 37.1337C49.0434 39.6809 48.8314 42.9166 49.2266 43.459C49.4083 43.7078 49.4429 43.6948 49.7861 43.2334C49.988 42.9644 50.7379 41.5888 51.4547 40.1785C53.0151 37.1048 54.5971 34.5243 56.0552 32.6772C56.3032 32.3633 56.5772 32.0277 56.8671 31.6835ZM36.4909 34.9756C36.5832 35.2215 36.6712 35.4573 36.7462 35.6554C37.711 38.2316 38.8128 40.436 39.5858 41.3328C40.0919 41.9215 40.6429 42.176 40.4784 41.745C39.9146 40.274 39.3824 37.005 39.3752 34.9756C39.3738 34.7022 39.368 34.4288 39.3565 34.154C39.4156 34.7615 39.4761 35.3893 39.5223 35.8724C39.7372 38.1303 40.1439 40.0845 40.7438 41.7493C41.0193 42.5131 41.2457 43.1958 41.2457 43.2667C41.2457 43.5646 40.901 43.3419 40.1626 42.5651C39.0118 41.353 37.0245 37.3782 36.6365 35.5108C36.6077 35.3748 36.5558 35.1839 36.4909 34.9756ZM47.4989 48.1484C48.0022 48.2989 47.956 47.8013 47.4469 46.527C46.8355 44.9952 46.6148 44.2372 46.5442 42.9094C46.6321 44.5034 46.9653 45.4248 48.1219 48.1311C48.2171 48.3553 47.9906 48.3582 47.4989 48.1484ZM33.1134 27.496C33.5128 27.8374 34.9838 30.9545 35.9054 33.4134C35.9068 33.4149 35.9068 33.4163 35.9068 33.4178C35.7525 33.0316 35.5809 32.602 35.4439 32.2563C34.7791 30.59 33.3758 27.7231 33.1134 27.496ZM50.7985 33.0836C50.9615 32.5947 51.1115 32.1724 51.2225 31.8947C51.7619 30.5552 52.3993 29.2968 53.1247 28.1339C52.2306 29.5962 51.459 31.2394 50.7985 33.0836ZM38.507 28.7269C37.7932 26.1045 36.6596 23.5645 35.167 21.3138C36.7 23.6267 37.8162 26.1059 38.507 28.7269ZM62.0343 26.3215C61.6998 26.5312 60.4884 27.7086 59.2986 28.9497C60.5532 27.6074 61.6724 26.5167 62.0343 26.3215ZM23.7841 33.4236C23.6197 33.0402 23.4769 32.6728 23.3629 32.3474C22.9043 31.0239 22.5986 29.9029 22.4111 28.7718C22.4299 28.8672 22.4501 28.967 22.4717 29.0741C22.7803 30.6102 23.2202 32.0624 23.7841 33.4236ZM68.4707 23.0438C68.4563 23.2506 68.4433 23.4532 68.4346 23.6499C68.3755 24.8302 68.2933 25.9367 68.1909 26.9651C68.2601 26.2217 68.3178 25.4261 68.3668 24.5669C68.3957 24.0549 68.4303 23.5428 68.4707 23.0438ZM59.7831 29.9289C60.161 29.372 60.6874 28.6054 61.1215 27.9806C61.7026 27.1445 62.1526 26.3866 62.1238 26.2969C62.1223 26.294 62.1209 26.2911 62.118 26.2896C62.1439 26.2868 62.1569 26.2998 62.1569 26.3273C62.1569 26.4184 61.6868 27.1691 61.1114 27.9965C60.6816 28.6127 60.1595 29.3749 59.7831 29.9289ZM67.5376 31.2582C67.4093 31.8426 67.2679 32.3778 67.1151 32.8623C66.9175 33.493 66.6968 34.1034 66.4545 34.6921C66.9074 33.5725 67.2607 32.466 67.5376 31.2582ZM56.981 34.2683C57.0445 34.1092 57.3012 33.6723 57.6228 33.1589C57.4122 33.4988 57.2074 33.8517 56.981 34.2683ZM46.6523 47.6798C46.7864 47.7709 46.909 47.8505 47.0201 47.917C46.6913 47.7362 46.3581 47.4947 46.0279 47.2054C46.2312 47.3775 46.4389 47.5366 46.6523 47.6798ZM22.1688 26.0351C22.1616 25.7111 22.1602 25.3755 22.1645 25.024C22.1674 24.781 22.1703 24.5394 22.1732 24.2979C22.166 25.0037 22.1645 25.5693 22.1688 26.0351ZM58.0554 32.4848C58.2227 32.2302 58.3929 31.9785 58.5515 31.75C58.7188 31.5113 59.1284 30.9082 59.4601 30.4077C59.1284 30.9082 58.7203 31.5113 58.5559 31.75C58.3727 32.0147 58.2083 32.2548 58.0554 32.4848ZM22.2035 22.0096C22.2208 20.8047 22.241 19.6548 22.2611 18.6162C22.2381 19.9354 22.2193 21.0549 22.2035 22.0096ZM43.4752 43.7021C43.4046 43.5516 43.3368 43.4012 43.2719 43.2493C42.4528 41.3212 42.2624 40.0006 42.1095 35.2215C42.2624 40.0035 42.4542 41.327 43.2733 43.2493C43.3382 43.4026 43.406 43.5531 43.4752 43.7021Z" fill="#8D913A"/>
<path d="M29.42 91.7054V87.6554H30.2853H31.1505V91.7054V95.7555H30.2853H29.42V91.7054ZM37.8724 95.3534C37.6114 94.8457 34.6117 87.8304 34.6117 87.7248C34.6117 87.6872 35.0588 87.6554 35.6039 87.6554H36.5961L37.359 89.5719C38.3123 91.9615 38.7925 93.0593 38.8545 92.9884C38.905 92.9335 40.327 89.3448 40.7106 88.3063L40.924 87.7277L41.9552 87.6857L42.9849 87.6423L42.7556 88.192C42.6287 88.4929 42.1657 89.6196 41.7259 90.6929C40.4827 93.7305 39.7775 95.3852 39.678 95.4937C39.6275 95.5487 39.2526 95.6369 38.843 95.6919C38.1205 95.7859 38.0916 95.7772 37.8724 95.3534ZM46.5095 95.5747C46.4734 95.4749 46.4273 93.6524 46.4057 91.5246L46.3653 87.6554H47.2493C48.0988 87.6554 48.1377 87.6713 48.2156 88.0531C48.2588 88.2716 48.2574 90.0565 48.2098 92.0193C48.1247 95.4821 48.1132 95.592 47.8204 95.6702C47.2897 95.8134 46.5744 95.7613 46.5095 95.5747ZM52.4007 95.5356C52.3704 95.4561 52.3632 93.6654 52.3834 91.5579L52.4223 87.7277L53.165 87.6843L53.9078 87.6409L55.0153 89.0584C55.6239 89.8381 56.4575 90.9171 56.8685 91.4581L57.6141 92.4388L57.653 90.0478L57.6934 87.6554H58.5342H59.3764L59.4658 88.5189C59.5149 88.9933 59.5134 90.8188 59.4629 92.5762L59.3706 95.77L58.7159 95.7266C58.0828 95.6846 58.0266 95.6412 56.9002 94.2917C56.2614 93.5251 55.4148 92.4721 55.0182 91.9484C54.6216 91.4263 54.2481 90.9952 54.189 90.9909C54.1298 90.9865 54.0808 92.0179 54.0808 93.2835V95.5834L53.2689 95.634C52.806 95.6615 52.4339 95.6195 52.4007 95.5356ZM66.1949 95.6282C64.3244 95.0135 63.2746 93.609 63.263 91.7098C63.2544 90.1114 64.0951 88.7286 65.533 87.9765C66.1718 87.6409 66.4358 87.5917 67.565 87.5961C68.9264 87.6018 69.7022 87.855 70.2647 88.4769C70.4983 88.7373 70.4969 88.7778 70.2272 89.2204C69.8421 89.8569 69.6085 89.9133 68.9725 89.5242C68.573 89.2797 68.201 89.1915 67.5549 89.1843C66.8021 89.1756 66.6002 89.2334 66.1315 89.5922C64.6417 90.7305 64.76 93.2025 66.3391 93.9764C67.0184 94.3076 68.3336 94.3091 68.837 93.9778C69.147 93.7739 69.2234 93.6119 69.2234 93.1562V92.5878L68.4663 92.5444L67.7092 92.501V91.7778V91.0545L69.3316 91.014L70.954 90.9721V92.6471C70.954 94.215 70.9324 94.3438 70.6122 94.6649C69.9258 95.3534 69.0922 95.66 67.7813 95.7049C67.1078 95.728 66.3939 95.6933 66.1949 95.6282ZM19.9017 91.6331V87.6554H20.7641H21.6266L21.6655 90.8737L21.7044 94.0921L23.6153 94.1326L25.5261 94.1731V94.892V95.6109H22.7139H19.9017V91.6331ZM46.6523 47.6797C45.275 46.7482 44.1184 45.2309 43.2733 43.2492C42.4542 41.3269 42.2624 40.0034 42.1095 35.2214C41.922 29.2997 41.4245 27.2023 39.3997 23.7944C38.6137 22.4724 38.0368 21.7434 36.6625 20.3389C35.428 19.0761 35.4136 19.0544 35.9097 19.1441C36.7043 19.2887 40.0097 20.9782 41.7273 22.118C42.5868 22.6879 43.8905 23.738 44.6246 24.4511C45.3601 25.1642 45.9975 25.7472 46.0408 25.7472C46.0855 25.7472 46.4042 25.5099 46.7489 25.2192C47.0921 24.9285 48.6727 23.8292 50.2591 22.7747C54.3332 20.0655 55.3614 19.1311 57.4555 16.2295C58.227 15.162 59.2178 12.8853 59.4298 11.6978C59.5725 10.9008 59.5697 10.3771 59.4197 9.06811C59.1731 6.92446 59.2899 6.07395 60.0312 4.58989C60.484 3.68007 60.9123 3.10872 61.8713 2.1367C62.5578 1.43807 63.1866 0.868164 63.2688 0.868164C63.351 0.868164 63.6005 1.60007 63.824 2.49542C64.1499 3.79289 64.2336 4.46115 64.2394 5.78611C64.248 7.34249 64.2206 7.50594 63.824 8.3174C63.55 8.87862 62.9284 9.67996 62.0675 10.584C60.6412 12.0796 60.5734 12.1838 59.5552 14.3925C58.8356 15.9547 56.9954 19.2454 55.6715 21.3355C55.2187 22.0515 53.7996 24.279 52.5175 26.2852C49.1227 31.6024 47.6776 34.517 46.847 37.7281C46.5773 38.7681 46.521 39.3771 46.5153 41.2965C46.5095 43.8105 46.6263 44.4729 47.4469 46.5269C48.155 48.2988 47.9661 48.5707 46.6523 47.6797ZM51.3407 46.1566C51.3407 45.7371 52.2219 43.8177 55.0312 38.1143C56.9752 34.167 57.3473 33.4958 58.5558 31.7499C58.7202 31.5113 59.1284 30.9081 59.4601 30.4076C59.7932 29.9086 60.5359 28.8238 61.1113 27.9964C61.6867 27.169 62.1569 26.4183 62.1569 26.3272C62.1569 25.8455 58.1837 29.9809 56.0551 32.6771C54.5971 34.5242 53.0151 37.1047 51.4547 40.1784C50.7379 41.5887 49.988 42.9643 49.7861 43.2333C49.4428 43.6948 49.4082 43.7078 49.2265 43.459C48.7996 42.8746 49.0809 39.1543 49.7471 36.5464C51.4705 29.8117 54.2683 25.3002 58.5645 22.3249C61.2613 20.4575 65.3873 18.8143 68.3437 18.4281L69.1211 18.3269L69.023 18.7203C68.7778 19.6995 68.5053 22.1325 68.3668 24.5669C68.0712 29.7567 67.4525 32.6193 65.9079 35.9447C65.3469 37.1539 64.933 37.731 63.2053 39.7098C62.1785 40.8857 60.3037 42.5521 59.4788 43.0222C59.2466 43.1538 58.6351 43.5212 58.1189 43.838C56.4791 44.8461 54.2726 45.8644 52.7829 46.3013C51.4907 46.6802 51.3407 46.6658 51.3407 46.1566ZM34.7271 44.1981C34.355 44.0925 33.5373 43.741 32.91 43.417C27.4269 40.5863 23.7782 35.5715 22.4717 29.074C22.1068 27.2602 22.1097 27.3947 22.2683 18.1692C22.3101 15.7117 22.375 13.6707 22.4125 13.6346C22.5236 13.5217 24.8051 14.0266 25.9588 14.4185C30.0401 15.8042 32.9677 17.9971 35.1669 21.3138C37.8349 25.3378 39.3593 30.2847 39.3752 34.9755C39.3824 37.0049 39.9145 40.2739 40.4784 41.7449C40.6428 42.176 40.0919 41.9214 39.5857 41.3327C38.8127 40.4359 37.7109 38.2315 36.7461 35.6554C36.5082 35.0189 36.1289 34.0093 35.9053 33.4134C34.9824 30.9486 33.5056 27.8228 33.1104 27.4945C32.985 27.3889 32.8811 27.2413 32.8811 27.1661C32.8811 26.8985 30.6126 23.8075 29.5353 22.604C28.8604 21.8504 28.8474 21.9314 29.4762 22.9801C30.5016 24.6884 31.3986 26.6931 32.5913 29.9419C33.4061 32.1636 34.9001 36.8574 34.9001 37.1973C34.9001 37.5358 35.7135 39.6375 36.4014 41.0752C36.687 41.6697 36.9192 42.2309 36.9192 42.3221C36.9192 42.4132 37.0446 42.6475 37.1989 42.8428C37.5955 43.3491 37.7037 43.8886 37.4585 44.1345C37.1874 44.4064 35.5982 44.4426 34.7271 44.1981ZM44.7472 20.8133C43.9295 20.5761 42.5248 19.3842 42.1239 18.5872C41.6076 17.5631 41.5932 15.6148 42.0936 14.5024C43.0253 12.4268 45.8403 11.3405 47.8089 12.2951C48.6958 12.7262 49.6909 13.6288 50.0428 14.3216C50.6312 15.4759 50.7278 17.3346 50.2591 18.4628C49.9433 19.2237 49.0131 20.1262 48.0959 20.5631C47.3863 20.9001 47.0489 20.971 46.2211 20.9608C45.6658 20.9536 45.0024 20.8871 44.7472 20.8133ZM60.5215 16.0198C60.6426 15.3616 61.505 13.7373 62.1035 13.0357C62.8881 12.1158 64.385 11.449 65.9209 11.3361C67.2679 11.2349 68.5024 11.3578 68.5024 11.5922C68.5024 11.6717 68.2269 12.2055 67.8909 12.7768C67.1453 14.0439 66.1127 15.1128 65.2777 15.4831C64.4211 15.8635 61.7863 16.4899 61.0421 16.4899C60.4335 16.4899 60.4335 16.4899 60.5215 16.0198ZM55.9744 13.0907C53.7405 11.2118 53.3871 10.5117 53.2559 7.70989C53.2098 6.73209 53.2213 5.93075 53.2804 5.93075C53.341 5.93075 53.853 6.1752 54.4197 6.47317C56.3479 7.48858 57.7987 9.3979 57.9458 11.1119C58.0064 11.8091 57.6992 13.4364 57.4007 14.0092C57.3257 14.1509 56.9363 13.9007 55.9744 13.0907Z" fill="#8D913A"/>
</g>
</g>
<defs>
<clipPath id="clip0_296_16150">
<rect width="91" height="104" fill="white"/>
</clipPath>
</defs>
</svg>
