<svg width="45" height="47" viewBox="0 0 45 47" fill="none" xmlns="http://www.w3.org/2000/svg">
<path d="M35.2174 2.04348C35.2174 0.914896 36.0933 0 37.1739 0C38.2545 0 39.1304 0.914896 39.1304 2.04348V3.24059L41.617 0.643479C42.381 -0.154549 43.6199 -0.154547 44.3839 0.643481C45.1481 1.44151 45.1481 2.73536 44.3839 3.5334L41.8973 6.13043H43.0435C44.1241 6.13043 45 7.04534 45 8.17391C45 9.30248 44.1241 10.2174 43.0435 10.2174H37.9843L22.8946 25.9777C22.1306 26.7757 20.8917 26.7757 20.1277 25.9777C19.3637 25.1797 19.3637 23.8858 20.1277 23.0878L35.2174 7.32754V2.04348Z" fill="#9DAC20"/>
<path d="M32.0721 7.7429C32.9361 6.84055 32.8064 5.33501 31.7313 4.72877C28.6934 3.01579 25.2162 2.04348 21.5217 2.04348C9.63561 2.04348 0 12.1073 0 24.5217C0 36.9361 9.63561 47 21.5217 47C33.4078 47 43.0435 36.9361 43.0435 24.5217C43.0435 20.6706 42.1163 17.0457 40.4822 13.8773C39.9025 12.7532 38.4601 12.6169 37.5955 13.5198L37.537 13.5809C36.891 14.2556 36.7889 15.3023 37.2052 16.1516C38.4361 18.6623 39.1304 21.5074 39.1304 24.5217C39.1304 34.6791 31.2468 42.913 21.5217 42.913C11.7967 42.913 3.91304 34.6791 3.91304 24.5217C3.91304 14.3645 11.7967 6.13044 21.5217 6.13044C24.4139 6.13044 27.1432 6.85869 29.5507 8.14921C30.3642 8.58525 31.3673 8.47899 32.014 7.80372L32.0721 7.7429Z" fill="#9DAC20"/>
<path d="M26.1977 13.8785C27.1223 12.9128 26.8897 11.2867 25.6426 10.8762C24.3421 10.4482 22.9577 10.2174 21.5218 10.2174C13.9579 10.2174 7.82612 16.6217 7.82612 24.5217C7.82612 32.4218 13.9579 38.8261 21.5218 38.8261C29.0857 38.8261 35.2174 32.4218 35.2174 24.5217C35.2174 23.0304 34.9989 21.5922 34.5935 20.2404C34.2022 18.9361 32.6438 18.6916 31.7186 19.6582L31.538 19.8467C30.9878 20.4212 30.8338 21.2775 31.0201 22.0663C31.2058 22.8528 31.3044 23.6753 31.3044 24.5217C31.3044 30.1646 26.9245 34.7391 21.5218 34.7391C16.119 34.7391 11.7392 30.1646 11.7392 24.5217C11.7392 18.8788 16.119 14.3043 21.5218 14.3043C22.338 14.3043 23.131 14.4088 23.8892 14.6056C24.6454 14.8019 25.4673 14.6414 26.0182 14.0659L26.1977 13.8785Z" fill="#9DAC20"/>
<path d="M19.7178 18.7006C20.5188 18.4216 20.9219 19.3887 20.3248 20.0124L18.7488 21.6586C17.2224 23.2527 17.2224 25.8373 18.7488 27.4314C20.2751 29.0256 22.7497 29.0256 24.2759 27.4314L25.8322 25.8061C26.4305 25.1812 27.3565 25.605 27.084 26.442C26.2976 28.8557 24.0916 30.6522 21.5218 30.6522C18.28 30.6522 15.6522 27.9076 15.6522 24.5217C15.6522 21.8235 17.3901 19.5112 19.7178 18.7006Z" fill="#9DAC20"/>
</svg>
