<svg width="134" height="35" viewBox="0 0 134 35" fill="none" xmlns="http://www.w3.org/2000/svg">
<g clip-path="url(#clip0_142_4626)">
<path fill-rule="evenodd" clip-rule="evenodd" d="M20.529 7.46826C19.3205 7.46826 18.1239 7.70434 17.0074 8.16296C15.891 8.62159 14.8765 9.29378 14.022 10.1412C13.1674 10.9887 12.4896 11.9947 12.0271 13.1019C11.6158 14.0866 11.382 15.1342 11.3353 16.197C11.3247 16.4403 11.1881 16.663 10.969 16.7716L8.0033 18.2422C7.78415 18.3509 7.64369 18.5735 7.65438 18.8168C7.70107 19.8796 7.93484 20.9272 8.34614 21.9119C8.80862 23.0191 9.48647 24.0252 10.341 24.8726C11.1955 25.72 12.21 26.3922 13.3265 26.8508C14.4429 27.3095 15.6396 27.5455 16.8481 27.5455C18.0566 27.5455 19.2532 27.3095 20.3697 26.8508C21.4862 26.3922 22.5006 25.72 23.3551 24.8726C24.2097 24.0252 24.8875 23.0191 25.35 21.9119C25.7613 20.9272 25.9951 19.8796 26.0418 18.8168C26.0525 18.5735 26.189 18.3509 26.4081 18.2422L29.3738 16.7716C29.593 16.663 29.7334 16.4403 29.7227 16.197C29.676 15.1342 29.4423 14.0866 29.031 13.1019C28.5685 11.9947 27.8906 10.9887 27.0361 10.1412C26.1816 9.29378 25.1671 8.62159 24.0507 8.16296C22.9342 7.70434 21.7375 7.46826 20.529 7.46826ZM24.78 14.8481C24.96 15.2791 25.072 15.7342 25.1128 16.1974C25.1341 16.44 24.9918 16.663 24.7726 16.7716L21.8069 18.2422C21.5878 18.3509 21.4532 18.5738 21.4318 18.8164C21.3911 19.2796 21.279 19.7347 21.099 20.1657C20.8678 20.7193 20.5289 21.2223 20.1016 21.6461C19.6743 22.0697 19.1671 22.4059 18.6089 22.6352C18.0506 22.8645 17.4523 22.9825 16.8481 22.9825C16.2438 22.9825 15.6455 22.8645 15.0873 22.6352C14.529 22.4059 14.0218 22.0697 13.5945 21.6461C13.1673 21.2223 12.8284 20.7193 12.5971 20.1657C12.4171 19.7347 12.3051 19.2796 12.2643 18.8164C12.243 18.5738 12.3854 18.3509 12.6045 18.2422L15.5702 16.7716C15.7893 16.663 15.9239 16.44 15.9453 16.1974C15.986 15.7342 16.0981 15.2791 16.2781 14.8481C16.5093 14.2945 16.8482 13.7915 17.2755 13.3678C17.7028 12.9441 18.21 12.6079 18.7682 12.3786C19.3265 12.1493 19.9248 12.0313 20.529 12.0313C21.1333 12.0313 21.7316 12.1493 22.2898 12.3786C22.8481 12.6079 23.3553 12.9441 23.7826 13.3678C24.2098 13.7915 24.5488 14.2945 24.78 14.8481Z" fill="#1672C8"/>
<path fill-rule="evenodd" clip-rule="evenodd" d="M20.5291 0.16748C18.3538 0.16748 16.1999 0.592372 14.1902 1.4179C12.1805 2.24342 10.3545 3.45343 8.81633 4.97879C7.2782 6.50418 6.05809 8.31506 5.22564 10.308C4.44434 12.1786 4.01893 14.1752 3.96959 16.197C3.96365 16.4404 3.82626 16.663 3.60712 16.7716L0.641408 18.2422C0.422274 18.3509 0.282695 18.5735 0.288635 18.8169C0.337964 20.8387 0.763383 22.8353 1.54467 24.7058C2.37711 26.6988 3.59723 28.5097 5.13536 30.0351C6.67352 31.5604 8.49954 32.7706 10.5092 33.5958C12.5189 34.4214 14.6729 34.8465 16.8481 34.8465C19.0234 34.8465 21.1774 34.4214 23.187 33.5958C25.1967 32.7706 27.0227 31.5604 28.5609 30.0351C30.099 28.5097 31.3192 26.6988 32.1516 24.7058C32.933 22.8353 33.3582 20.8387 33.4076 18.8169C33.4135 18.5735 33.551 18.3509 33.7699 18.2422L36.7357 16.7716C36.9549 16.663 37.0944 16.4404 37.0886 16.197C37.0392 14.1752 36.614 12.1786 35.8326 10.308C35.0002 8.31506 33.7799 6.50418 32.2418 4.97879C30.7037 3.45343 28.8777 2.24343 26.868 1.4179C24.8583 0.592375 22.7043 0.16748 20.5291 0.16748ZM28.8045 18.8169C28.8128 18.5735 28.9497 18.3509 29.1689 18.2422L32.1346 16.7716C32.3537 16.663 32.4939 16.4404 32.4855 16.197C32.4374 14.7746 32.1316 13.3711 31.5816 12.0542C30.9804 10.6149 30.0992 9.30697 28.9883 8.20534C27.8774 7.10368 26.5586 6.2298 25.1072 5.63358C23.6557 5.03736 22.1001 4.73048 20.5291 4.73048C18.9581 4.73048 17.4024 5.03736 15.951 5.63358C14.4996 6.2298 13.1808 7.10368 12.0699 8.20534C10.959 9.30697 10.0778 10.6149 9.47661 12.0542C8.92656 13.3711 8.62072 14.7746 8.57267 16.197C8.56444 16.4404 8.42747 16.663 8.20832 16.7716L5.24263 18.2422C5.02348 18.3509 4.88347 18.5735 4.89171 18.8169C4.93975 20.2393 5.2456 21.6427 5.79564 22.9596C6.39683 24.399 7.27804 25.7069 8.38891 26.8085C9.49979 27.9102 10.8186 28.7841 12.27 29.3803C13.7215 29.9765 15.2771 30.2834 16.8481 30.2834C18.4192 30.2834 19.9748 29.9765 21.4262 29.3803C22.8776 28.7841 24.1965 27.9102 25.3073 26.8085C26.4182 25.7069 27.2994 24.399 27.9006 22.9596C28.4507 21.6427 28.7565 20.2393 28.8045 18.8169Z" fill="#1672C8"/>
<path d="M86.1288 5.5709C85.6383 5.5709 85.2237 5.40233 84.8847 5.06517C84.5456 4.72801 84.3761 4.31861 84.3761 3.83696C84.3761 3.34327 84.5456 2.93086 84.8847 2.59973C85.2237 2.26257 85.6383 2.09399 86.1288 2.09399C86.6192 2.09399 87.0309 2.26257 87.3638 2.59973C87.7028 2.93086 87.8724 3.34327 87.8724 3.83696C87.8724 4.31861 87.7028 4.72801 87.3638 5.06517C87.0309 5.40233 86.6192 5.5709 86.1288 5.5709Z" fill="#2287CF"/>
<path d="M84.6848 16.3992V6.68188H87.5547V16.3992H84.6848Z" fill="#2287CF"/>
<path fill-rule="evenodd" clip-rule="evenodd" d="M89.1736 19.2583V6.68183H91.8978V7.64815H91.9333C92.1051 7.47999 92.2901 7.32647 92.4881 7.18756C93.13 6.74203 93.8684 6.51929 94.7041 6.51929C95.4367 6.51929 96.1358 6.70893 96.8019 7.08821C97.4738 7.46753 98.0186 8.03045 98.4364 8.77701C98.8542 9.52357 99.057 10.4538 99.045 11.5676C99.0508 12.4105 98.933 13.145 98.6908 13.7711C98.4486 14.3913 98.1216 14.906 97.7099 15.3154C97.2982 15.7248 96.8381 16.0319 96.3295 16.2366C95.821 16.4413 95.3063 16.5436 94.7858 16.5436C93.9624 16.5436 93.2236 16.3149 92.5698 15.8573C92.4054 15.7406 92.2494 15.6141 92.1019 15.478H92.0431V17.6276L89.1736 19.2583ZM94.1138 14.1595C94.5375 14.1535 94.9098 14.0421 95.2307 13.8253C95.5517 13.6086 95.8029 13.3015 95.9843 12.9042C96.1661 12.5068 96.2539 12.0432 96.2478 11.5134C96.2539 10.9715 96.1632 10.5079 95.9753 10.1226C95.7938 9.73129 95.5365 9.43328 95.2036 9.22858C94.8704 9.01784 94.489 8.9155 94.0593 8.92151C93.6537 8.9155 93.2905 9.01482 92.9695 9.21952C92.6485 9.42422 92.3944 9.72227 92.2065 10.1136C92.0189 10.4989 91.9253 10.9655 91.9253 11.5134C91.9253 12.0432 92.0189 12.5068 92.2065 12.9042C92.4002 13.3015 92.6608 13.6086 92.9876 13.8253C93.3147 14.0421 93.6899 14.1535 94.1138 14.1595Z" fill="#2287CF"/>
<path d="M103.479 16.5437C102.898 16.5437 102.341 16.4443 101.808 16.2456C101.281 16.0469 100.815 15.767 100.41 15.4057C100.004 15.0385 99.6982 14.611 99.4926 14.1234L101.745 13.139C101.896 13.4219 102.123 13.6899 102.426 13.9427C102.728 14.1956 103.086 14.322 103.497 14.322C103.715 14.322 103.906 14.2859 104.07 14.2137C104.233 14.1354 104.36 14.0361 104.451 13.9156C104.548 13.7952 104.596 13.6658 104.596 13.5273C104.596 13.3527 104.526 13.2022 104.387 13.0758C104.248 12.9493 104.07 12.8409 103.852 12.7507C103.634 12.6603 103.403 12.5821 103.161 12.5158C102.925 12.4496 102.707 12.3894 102.507 12.3352C102.047 12.1968 101.611 12.0071 101.2 11.7663C100.794 11.5194 100.464 11.2064 100.21 10.827C99.9556 10.4478 99.8284 9.98717 99.8284 9.44531C99.8284 8.87336 99.9769 8.37061 100.273 7.93713C100.576 7.49764 100.985 7.15444 101.499 6.90761C102.02 6.66075 102.613 6.53735 103.279 6.53735C104.109 6.53735 104.854 6.727 105.513 7.10628C106.179 7.4856 106.651 7.98831 106.93 8.61446L104.723 9.5627C104.608 9.37004 104.439 9.18342 104.215 9.0028C103.997 8.82218 103.718 8.73185 103.379 8.73185C103.095 8.73185 102.859 8.8041 102.671 8.9486C102.483 9.09309 102.389 9.27371 102.389 9.49045C102.389 9.7072 102.483 9.88181 102.671 10.0143C102.859 10.1467 103.098 10.2611 103.388 10.3574C103.679 10.4538 103.982 10.5471 104.297 10.6374C104.539 10.7036 104.82 10.8 105.141 10.9264C105.462 11.0468 105.774 11.2124 106.076 11.4231C106.385 11.6338 106.639 11.9047 106.839 12.2359C107.045 12.567 107.148 12.9734 107.148 13.4551C107.148 14.0632 106.978 14.602 106.639 15.0716C106.307 15.5352 105.862 15.8964 105.305 16.1553C104.753 16.4142 104.145 16.5437 103.479 16.5437Z" fill="#2287CF"/>
<path d="M118.813 16.3992V6.68185H121.547V7.91908H121.597C121.811 7.62345 122.051 7.3736 122.319 7.16951C122.864 6.74806 123.509 6.53735 124.253 6.53735C124.871 6.53735 125.394 6.68785 125.824 6.98889C126.156 7.2133 126.426 7.51434 126.635 7.89198H126.687C126.996 7.49976 127.372 7.19272 127.813 6.97084C128.388 6.68185 129.015 6.53735 129.693 6.53735C130.341 6.53735 130.873 6.65173 131.291 6.88051C131.709 7.10329 132.036 7.39829 132.272 7.76556C132.508 8.1268 132.675 8.52417 132.771 8.95765C132.868 9.3851 132.917 9.80054 132.917 10.2039V16.3992H130.029V10.5561C130.029 10.0263 129.917 9.61992 129.693 9.33694C129.475 9.04795 129.154 8.90345 128.73 8.90345C128.452 8.90345 128.203 8.96667 127.986 9.09309C127.774 9.2135 127.604 9.39714 127.477 9.644C127.356 9.89084 127.296 10.1949 127.296 10.5561V16.3992H124.426V10.5561C124.426 10.0263 124.314 9.61992 124.09 9.33694C123.866 9.04795 123.542 8.90345 123.118 8.90345C122.706 8.90345 122.364 9.04493 122.092 9.32791C121.82 9.60486 121.683 10.0203 121.683 10.5742V16.3992H118.813Z" fill="#2287CF"/>
<path d="M109.957 16.1192C110.508 16.4022 111.119 16.5437 111.791 16.5437C112.584 16.5437 113.287 16.351 113.898 15.9657C114.207 15.7677 114.489 15.5419 114.742 15.2884H114.815C114.902 15.4859 115.029 15.6605 115.197 15.8122C115.53 16.1132 116.056 16.357 116.777 16.5437L117.794 14.1595C117.479 14.0451 117.27 13.9097 117.167 13.7531C117.064 13.5966 117.013 13.3437 117.013 12.9945V6.68188H114.143V12.4075C114.143 12.7627 114.073 13.0698 113.934 13.3287C113.801 13.5815 113.613 13.7772 113.371 13.9157C113.135 14.0542 112.86 14.1234 112.545 14.1234C112.121 14.1234 111.761 13.9789 111.464 13.6899C111.174 13.3949 111.028 12.9674 111.028 12.4075V6.68188H108.159V12.7868C108.159 13.6056 108.319 14.295 108.64 14.8549C108.967 15.4088 109.406 15.8302 109.957 16.1192Z" fill="#2287CF"/>
<path fill-rule="evenodd" clip-rule="evenodd" d="M78.4707 16.5437C77.532 16.5437 76.6754 16.3299 75.9005 15.9025C75.1317 15.475 74.5172 14.8849 74.0571 14.1324C73.6031 13.3798 73.3761 12.5128 73.3761 11.5315C73.3761 10.5501 73.6031 9.68312 74.0571 8.93055C74.5172 8.17795 75.1317 7.59095 75.9005 7.16951C76.6754 6.74806 77.532 6.53735 78.4707 6.53735C79.4271 6.53735 80.2899 6.74806 81.0587 7.16951C81.8278 7.59095 82.4361 8.17795 82.884 8.93055C83.3383 9.68312 83.5653 10.5501 83.5653 11.5315C83.5653 12.5128 83.3383 13.3798 82.884 14.1324C82.4361 14.8849 81.8246 15.475 81.0496 15.9025C80.2808 16.3299 79.421 16.5437 78.4707 16.5437ZM78.4707 14.1053C78.9185 14.1053 79.3212 13.9969 79.6783 13.7802C80.0357 13.5634 80.317 13.2624 80.523 12.8771C80.7287 12.4918 80.8317 12.0432 80.8317 11.5315C80.8317 11.0378 80.7319 10.5983 80.532 10.2129C80.3322 9.82761 80.0567 9.52658 79.7057 9.30984C79.3544 9.08709 78.9489 8.9757 78.4888 8.9757C78.0348 8.9757 77.626 9.08407 77.2627 9.30081C76.9056 9.51155 76.6241 9.80956 76.4181 10.1949C76.2124 10.5802 76.1094 11.0257 76.1094 11.5315C76.1094 12.0432 76.2124 12.4918 76.4181 12.8771C76.6302 13.2624 76.9147 13.5634 77.2718 13.7802C77.6289 13.9969 78.0286 14.1053 78.4707 14.1053Z" fill="#2287CF"/>
<path fill-rule="evenodd" clip-rule="evenodd" d="M67.1165 20.3367C66.3051 20.3367 65.5605 20.2373 64.8825 20.0386C64.2105 19.846 63.6807 19.6473 63.2932 19.4426L64.2377 17.2029C64.5767 17.4076 64.9703 17.5822 65.4181 17.7267C65.8721 17.8772 66.3322 17.9525 66.7985 17.9525C67.1982 17.9525 67.6128 17.8863 68.0426 17.7538C68.4727 17.6214 68.8389 17.4106 69.1414 17.1216C69.4443 16.8387 69.5957 16.4654 69.5957 16.0018V15.0626H69.5521C69.3745 15.2369 69.1831 15.3965 68.978 15.5412C68.3303 15.9928 67.5915 16.2185 66.7623 16.2185C66.2477 16.2185 65.7362 16.1222 65.2276 15.9295C64.7191 15.7309 64.2557 15.4328 63.8379 15.0355C63.4262 14.6321 63.0965 14.1294 62.8482 13.5273C62.5999 12.9253 62.476 12.2178 62.476 11.405C62.476 10.3213 62.6878 9.42125 63.1114 8.70477C63.5415 7.9823 64.0923 7.44044 64.7643 7.0792C65.4362 6.71196 66.1356 6.52832 66.8621 6.52832C67.7036 6.52832 68.4391 6.74205 69.0688 7.16953C69.2709 7.30542 69.4588 7.45595 69.6322 7.62106H69.6864V6.67282H72.2928V15.8393C72.2928 16.5798 72.1656 17.23 71.9115 17.7899C71.6571 18.3498 71.2967 18.8195 70.8308 19.1988C70.3707 19.5781 69.8256 19.861 69.196 20.0477C68.5663 20.2403 67.8731 20.3367 67.1165 20.3367ZM67.4704 13.8976C67.9063 13.8976 68.2909 13.7892 68.6238 13.5725C68.957 13.3557 69.2202 13.0547 69.4139 12.6694C69.6077 12.278 69.7045 11.8265 69.7045 11.3147C69.7045 10.7969 69.6109 10.3544 69.423 9.98719C69.2354 9.61391 68.978 9.3279 68.6513 9.12924C68.3242 8.93054 67.9457 8.83122 67.516 8.83122C67.0862 8.83122 66.7016 8.93356 66.3626 9.13826C66.0236 9.33696 65.7572 9.62293 65.5634 9.99621C65.3758 10.3695 65.2819 10.809 65.2819 11.3147C65.2819 11.8204 65.3758 12.269 65.5634 12.6604C65.751 13.0457 66.0084 13.3497 66.3355 13.5725C66.6622 13.7892 67.0407 13.8976 67.4704 13.8976Z" fill="#2287CF"/>
<path fill-rule="evenodd" clip-rule="evenodd" d="M56.6523 16.5437C55.7137 16.5437 54.857 16.3299 54.0821 15.9025C53.3133 15.475 52.6988 14.8849 52.2387 14.1324C51.7847 13.3798 51.5577 12.5128 51.5577 11.5315C51.5577 10.5501 51.7847 9.68312 52.2387 8.93055C52.6988 8.17795 53.3133 7.59095 54.0821 7.16951C54.857 6.74806 55.7137 6.53735 56.6523 6.53735C57.6087 6.53735 58.4715 6.74806 59.2403 7.16951C60.0094 7.59095 60.6178 8.17795 61.0656 8.93055C61.5199 9.68312 61.7469 10.5501 61.7469 11.5315C61.7469 12.5128 61.5199 13.3798 61.0656 14.1324C60.6178 14.8849 60.0062 15.475 59.2313 15.9025C58.4625 16.3299 57.6026 16.5437 56.6523 16.5437ZM56.6523 14.1053C57.1002 14.1053 57.5028 13.9969 57.8599 13.7802C58.2174 13.5634 58.4986 13.2624 58.7046 12.8771C58.9103 12.4918 59.0133 12.0432 59.0133 11.5315C59.0133 11.0378 58.9135 10.5983 58.7137 10.2129C58.5138 9.82761 58.2384 9.52658 57.8874 9.30984C57.5361 9.08709 57.1305 8.9757 56.6704 8.9757C56.2164 8.9757 55.8076 9.08407 55.4444 9.30081C55.0873 9.51155 54.8057 9.80956 54.5997 10.1949C54.394 10.5802 54.291 11.0257 54.291 11.5315C54.291 12.0432 54.394 12.4918 54.5997 12.8771C54.8118 13.2624 55.0963 13.5634 55.4534 13.7802C55.8105 13.9969 56.2103 14.1053 56.6523 14.1053Z" fill="#2287CF"/>
<path d="M43.7996 16.399V3.0874H46.7782V13.762H51.6003V16.399H43.7996Z" fill="#2287CF"/>
<path fill-rule="evenodd" clip-rule="evenodd" d="M89.1775 21.1827V23.8527H89.0958C88.9773 23.7502 88.8533 23.6539 88.7232 23.5637C88.0877 23.1182 87.3551 22.8954 86.5256 22.8954C85.7929 22.8954 85.0906 23.0851 84.4187 23.4644C83.7468 23.8437 83.2017 24.4066 82.7842 25.1532C82.3664 25.8997 82.1665 26.8299 82.1846 27.9437C82.1726 28.7866 82.2876 29.5211 82.5298 30.1473C82.7719 30.7674 83.099 31.2822 83.5107 31.6916C83.9224 32.101 84.3825 32.4081 84.8911 32.6126C85.3996 32.8175 85.914 32.9199 86.4348 32.9199C87.2582 32.9199 87.9966 32.691 88.6505 32.2334C88.9782 32.0011 89.2717 31.7301 89.531 31.4207H89.6205C89.6886 31.5951 89.7919 31.7606 89.9311 31.9173C90.1187 32.1159 90.367 32.2995 90.6757 32.4681C90.9905 32.6309 91.3722 32.7812 91.82 32.9199L92.8281 30.5356C92.5494 30.4333 92.3499 30.3098 92.2288 30.1653C92.1077 30.0209 92.047 29.771 92.047 29.4158V19.552L89.1775 21.1827ZM88.233 30.2015C87.9059 30.4182 87.5307 30.5296 87.1068 30.5356C86.6889 30.5296 86.3166 30.4182 85.9899 30.2015C85.6628 29.9847 85.4087 29.6777 85.2269 29.2803C85.0516 28.8829 84.9666 28.4194 84.9728 27.8895C84.9666 27.3477 85.0574 26.8841 85.2453 26.4988C85.4329 26.1074 85.6902 25.8094 86.017 25.6047C86.3499 25.394 86.7316 25.2917 87.1613 25.2977C87.5669 25.2917 87.9301 25.391 88.2511 25.5957C88.572 25.8004 88.8262 26.0984 89.0138 26.4897C89.2017 26.8751 89.2985 27.3417 89.3044 27.8895C89.2985 28.4194 89.2017 28.8829 89.0138 29.2803C88.8262 29.6777 88.5659 29.9847 88.233 30.2015Z" fill="#2287CF"/>
<path d="M124.802 32.7755V23.0581H127.581V24.3314H127.624C127.701 24.2164 127.787 24.108 127.88 24.0063C128.219 23.6451 128.625 23.3742 129.097 23.1935C129.569 23.0069 130.075 22.9136 130.614 22.9136C131.267 22.9136 131.831 23.0641 132.303 23.3651C132.775 23.6661 133.138 24.0786 133.393 24.6024C133.647 25.1262 133.774 25.7312 133.774 26.4176V32.7755H130.904V27.0407C130.904 26.4567 130.765 26.0202 130.487 25.7312C130.208 25.4362 129.83 25.2887 129.351 25.2887C129.037 25.2887 128.752 25.358 128.498 25.4964C128.244 25.6289 128.041 25.8276 127.889 26.0925C127.744 26.3513 127.671 26.6765 127.671 27.0678V32.7755H124.802Z" fill="#2287CF"/>
<path fill-rule="evenodd" clip-rule="evenodd" d="M118.903 32.92C117.964 32.92 117.108 32.7062 116.333 32.2788C115.564 31.8512 114.949 31.2612 114.489 30.5086C114.035 29.756 113.808 28.8891 113.808 27.9077C113.808 26.9263 114.035 26.0594 114.489 25.3068C114.949 24.5542 115.564 23.9672 116.333 23.5457C117.108 23.1243 117.964 22.9136 118.903 22.9136C119.859 22.9136 120.722 23.1243 121.491 23.5457C122.26 23.9672 122.868 24.5542 123.316 25.3068C123.77 26.0594 123.997 26.9263 123.997 27.9077C123.997 28.8891 123.77 29.756 123.316 30.5086C122.868 31.2612 122.257 31.8512 121.482 32.2788C120.713 32.7062 119.853 32.92 118.903 32.92ZM118.903 30.4815C119.351 30.4815 119.753 30.3731 120.111 30.1564C120.468 29.9396 120.749 29.6386 120.955 29.2533C121.161 28.868 121.264 28.4195 121.264 27.9077C121.264 27.414 121.164 26.9745 120.964 26.5892C120.764 26.2039 120.489 25.9028 120.138 25.6861C119.787 25.4633 119.381 25.3519 118.921 25.3519C118.467 25.3519 118.058 25.4603 117.695 25.677C117.338 25.8878 117.056 26.1858 116.85 26.5711C116.645 26.9564 116.542 27.402 116.542 27.9077C116.542 28.4195 116.645 28.868 116.85 29.2533C117.062 29.6386 117.347 29.9396 117.704 30.1564C118.061 30.3731 118.461 30.4815 118.903 30.4815Z" fill="#2287CF"/>
<path d="M110.098 32.7753V23.0579H112.967V32.7753H110.098Z" fill="#2287CF"/>
<path d="M110.297 21.4414C110.637 21.7785 111.051 21.9471 111.542 21.9471C112.032 21.9471 112.444 21.7785 112.777 21.4414C113.116 21.1042 113.286 20.6948 113.286 20.2132C113.286 19.7195 113.116 19.3071 112.777 18.9759C112.444 18.6388 112.032 18.4702 111.542 18.4702C111.051 18.4702 110.637 18.6388 110.297 18.9759C109.958 19.3071 109.789 19.7195 109.789 20.2132C109.789 20.6948 109.958 21.1042 110.297 21.4414Z" fill="#2287CF"/>
<path d="M104.826 31.9263C105.413 32.5885 106.309 32.9199 107.514 32.9199C107.883 32.9199 108.246 32.8865 108.603 32.8203C108.967 32.7542 109.285 32.6549 109.557 32.5223L108.631 30.2737C108.528 30.3278 108.41 30.373 108.277 30.4091C108.143 30.4452 108.007 30.4633 107.868 30.4633C107.571 30.4633 107.32 30.373 107.114 30.1924C106.914 30.0057 106.815 29.7047 106.815 29.2893V25.424H109.076V23.0579H106.815V20.2583H103.945V23.0579H102.31V25.424H103.945V29.3615C103.945 30.4031 104.238 31.258 104.826 31.9263Z" fill="#2287CF"/>
<path fill-rule="evenodd" clip-rule="evenodd" d="M94.8039 32.5225C95.3063 32.7874 95.8875 32.92 96.5475 32.92C97.3102 32.92 97.9824 32.7694 98.5636 32.4682C99.0334 32.2274 99.3773 31.9595 99.5953 31.6646H99.6395C99.7244 31.8091 99.8378 31.9536 99.9801 32.0981C100.265 32.387 100.689 32.6249 101.252 32.8115L101.588 32.92L102.596 30.5357L102.378 30.4635C102.166 30.3972 102.017 30.2798 101.933 30.1112C101.854 29.9367 101.814 29.6838 101.814 29.3526V26.4266C101.814 26.0774 101.772 25.7011 101.688 25.2977C101.609 24.8883 101.439 24.506 101.179 24.1508C100.918 23.7896 100.519 23.4946 99.9801 23.2658C99.4412 23.031 98.7147 22.9136 97.8006 22.9136C97.2133 22.9136 96.6624 22.9617 96.1477 23.0581C95.6392 23.1484 95.1852 23.2628 94.7858 23.4012C94.3922 23.5397 94.0741 23.6782 93.832 23.8167L94.7858 25.966C95.0096 25.8215 95.2759 25.6951 95.5849 25.5867C95.8936 25.4723 96.2146 25.3851 96.5475 25.3248C96.8804 25.2586 97.1923 25.2255 97.4829 25.2255C97.737 25.2255 97.964 25.2556 98.1639 25.3158C98.3638 25.37 98.5333 25.4513 98.6724 25.5596C98.8116 25.668 98.9146 25.8005 98.9811 25.957C99.0538 26.1075 99.0903 26.2761 99.0903 26.4627V26.9504H97.2465C96.399 26.9504 95.6725 27.0799 95.067 27.3387C94.4677 27.5976 94.0076 27.9528 93.6867 28.4044C93.3718 28.8559 93.2146 29.3737 93.2146 29.9577C93.2146 30.5116 93.3538 31.0113 93.6324 31.4569C93.9169 31.9024 94.3073 32.2576 94.8039 32.5225ZM97.5917 28.7385H99.2265V29.3436C99.2265 29.6988 99.1112 29.9818 98.8813 30.1925C98.6573 30.4033 98.3909 30.5538 98.0822 30.6441C97.7735 30.7344 97.5039 30.7796 97.274 30.7796C97.0257 30.7796 96.8016 30.7404 96.6021 30.6621C96.4083 30.5778 96.2569 30.4635 96.1477 30.319C96.0389 30.1684 95.9844 29.9878 95.9844 29.7771C95.9844 29.4219 96.1206 29.16 96.3931 28.9914C96.6715 28.8228 97.0712 28.7385 97.5917 28.7385Z" fill="#2287CF"/>
<path d="M72.5535 32.7755V23.0581H75.3323V24.3314H75.3762C75.453 24.2164 75.5383 24.108 75.6322 24.0063C75.9713 23.6451 76.3768 23.3742 76.8489 23.1935C77.3213 23.0069 77.8266 22.9136 78.3655 22.9136C79.0194 22.9136 79.5825 23.0641 80.0546 23.3651C80.5269 23.6661 80.8902 24.0786 81.1443 24.6024C81.3988 25.1262 81.526 25.7312 81.526 26.4176V32.7755H78.6561V27.0407C78.6561 26.4567 78.5169 26.0202 78.2383 25.7312C77.96 25.4362 77.5815 25.2887 77.1033 25.2887C76.7885 25.2887 76.504 25.358 76.2496 25.4964C75.9955 25.6289 75.7924 25.8276 75.6413 26.0925C75.496 26.3513 75.4233 26.6765 75.4233 27.0678V32.7755H72.5535Z" fill="#2287CF"/>
<path d="M65.8011 32.9198C65.1288 32.9198 64.5176 32.7782 63.9664 32.4953C63.4156 32.2063 62.9768 31.7848 62.6497 31.2309C62.3287 30.671 62.1686 29.9816 62.1686 29.1628V23.0579H65.0381V28.7835C65.0381 29.3434 65.1834 29.7709 65.474 30.0659C65.7708 30.3549 66.1308 30.4994 66.5547 30.4994C66.8696 30.4994 67.145 30.4301 67.381 30.2917C67.6232 30.1532 67.8111 29.9575 67.9441 29.7047C68.0833 29.4457 68.1531 29.1387 68.1531 28.7835V23.0579H71.0226V29.3705C71.0226 29.7197 71.0742 29.9726 71.1773 30.1291C71.2799 30.2857 71.4888 30.4211 71.8037 30.5355L70.7866 32.9198C70.0662 32.7329 69.5395 32.4892 69.2063 32.188C69.0387 32.0365 68.9115 31.8619 68.8253 31.6644H68.7523C68.4989 31.9179 68.2173 32.1437 67.908 32.3418C67.2964 32.7271 66.5941 32.9198 65.8011 32.9198Z" fill="#2287CF"/>
<path fill-rule="evenodd" clip-rule="evenodd" d="M56.3333 32.92C55.3947 32.92 54.538 32.7062 53.7631 32.2788C52.9943 31.8512 52.3798 31.2612 51.9197 30.5086C51.4657 29.756 51.2384 28.8891 51.2384 27.9077C51.2384 26.9263 51.4657 26.0594 51.9197 25.3068C52.3798 24.5542 52.9943 23.9672 53.7631 23.5457C54.538 23.1243 55.3947 22.9136 56.3333 22.9136C57.2897 22.9136 58.1525 23.1243 58.9213 23.5457C59.6901 23.9672 60.2987 24.5542 60.7466 25.3068C61.2009 26.0594 61.4279 26.9263 61.4279 27.9077C61.4279 28.8891 61.2009 29.756 60.7466 30.5086C60.2987 31.2612 59.6872 31.8512 58.9122 32.2788C58.1434 32.7062 57.2836 32.92 56.3333 32.92ZM56.3333 30.4815C56.7812 30.4815 57.1838 30.3731 57.5409 30.1564C57.898 29.9396 58.1796 29.6386 58.3856 29.2533C58.5913 28.868 58.6943 28.4195 58.6943 27.9077C58.6943 27.414 58.5945 26.9745 58.3946 26.5892C58.1948 26.2039 57.9193 25.9028 57.5684 25.6861C57.2171 25.4633 56.8115 25.3519 56.3514 25.3519C55.8974 25.3519 55.4886 25.4603 55.1254 25.677C54.7683 25.8878 54.4867 26.1858 54.2807 26.5711C54.075 26.9564 53.972 27.402 53.972 27.9077C53.972 28.4195 54.075 28.868 54.2807 29.2533C54.4928 29.6386 54.7773 29.9396 55.1344 30.1564C55.4915 30.3731 55.8913 30.4815 56.3333 30.4815Z" fill="#2287CF"/>
<path d="M43.7776 32.7754V19.4636H51.5783V22.1007H46.7563V25.1621H50.7701V27.7992H46.7563V32.7754H43.7776Z" fill="#2287CF"/>
</g>
<defs>
<clipPath id="clip0_142_4626">
<rect width="134" height="35" fill="white"/>
</clipPath>
</defs>
</svg>
