<svg width="180" height="31" viewBox="0 0 180 31" fill="none" xmlns="http://www.w3.org/2000/svg">
<g clip-path="url(#clip0_142_4599)">
<path d="M108.924 8.7561V22.244H106.197V8.7561H108.924Z" fill="#003A30"/>
<path d="M42.0952 19.0491H52.8546V22.2437H39.3673V9.11108H42.0952V19.0491Z" fill="#003A30"/>
<path d="M137.869 18.0734C137.869 17.5343 137.495 17.0973 137.036 17.0973H129.307C127.34 17.0973 125.746 15.2301 125.746 12.9267C125.746 10.6233 127.34 8.7561 129.307 8.7561H140.293V11.9506H129.307C128.846 11.9506 128.473 12.3876 128.473 12.9267C128.473 13.4658 128.846 13.9028 129.307 13.9028H137.036C139.002 13.9028 140.597 15.77 140.597 18.0734C140.597 20.3767 139.002 22.244 137.036 22.244H126.049V19.0494H137.036C137.495 19.0494 137.869 18.6125 137.869 18.0734Z" fill="#003A30"/>
<path fill-rule="evenodd" clip-rule="evenodd" d="M120.821 8.7561C123.207 8.7561 125.14 11.0207 125.14 13.8141C125.14 16.6075 123.207 18.8719 120.821 18.8719H112.562V22.244H109.834V8.7561H120.821ZM112.562 15.6775H120.821C121.7 15.6775 122.413 14.8432 122.413 13.8141C122.413 12.7849 121.7 11.9506 120.821 11.9506H112.562V15.6775Z" fill="#003A30"/>
<path d="M67.2505 15.5C67.2505 13.5397 65.8938 11.9506 64.2199 11.9506H58.3098C56.6359 11.9506 55.279 13.5397 55.279 15.5C55.279 17.4603 56.6359 19.0494 58.3098 19.0494H64.2199C65.8938 19.0494 67.2505 17.4604 67.2505 15.5ZM69.9783 15.5C69.9783 19.2246 67.4 22.244 64.2199 22.244H58.3098C55.1294 22.244 52.5513 19.2246 52.5513 15.5C52.5513 11.7755 55.1294 8.7561 58.3098 8.7561H64.2199C67.4 8.7561 69.9783 11.7755 69.9783 15.5Z" fill="#003A30"/>
<path d="M102.712 15.5C102.712 13.5397 101.355 11.9506 99.6816 11.9506H93.7714C92.0971 11.9506 90.7405 13.5397 90.7405 15.5C90.7405 17.4603 92.0971 19.0494 93.7714 19.0494H99.6816C101.355 19.0494 102.712 17.4604 102.712 15.5ZM105.44 15.5C105.44 19.2246 102.861 22.244 99.6816 22.244H93.7714C90.5909 22.244 88.0127 19.2246 88.0127 15.5C88.0127 11.7755 90.5909 8.7561 93.7714 8.7561H99.6816C102.861 8.7561 105.44 11.7755 105.44 15.5Z" fill="#003A30"/>
<path d="M141.202 16.5648V8.7561H143.93V16.5648C143.93 17.9371 144.879 19.0494 146.051 19.0494H153.78C154.952 19.0494 155.901 17.9371 155.901 16.5648V8.7561H158.629V16.5648C158.629 19.7014 156.458 22.244 153.78 22.244H146.051C143.373 22.244 141.202 19.7014 141.202 16.5648Z" fill="#003A30"/>
<path d="M70.433 15.5C70.433 11.7755 73.0106 8.7561 76.191 8.7561H86.9506V11.9506H76.191C74.5174 11.9506 73.1601 13.5397 73.1601 15.5C73.1601 17.4603 74.5174 19.0494 76.191 19.0494H84.2989C84.7589 19.0494 85.1321 18.6125 85.1321 18.0734C85.1321 17.5343 84.7589 17.0973 84.2989 17.0973H75.4333V13.9028H84.2989C86.2657 13.9028 87.8599 15.77 87.8599 18.0734C87.8599 20.3767 86.2657 22.244 84.2989 22.244H76.191C73.0106 22.244 70.433 19.2246 70.433 15.5Z" fill="#003A30"/>
<path d="M173.87 8.7561C175.297 8.7561 176.561 9.84072 176.99 11.4355L179.899 22.244H177.039L174.388 12.3958C174.317 12.1308 174.107 11.9506 173.87 11.9506C173.637 11.9507 173.432 12.1237 173.357 12.3774L173.343 12.4293L171.729 19.8056C171.416 21.2404 170.311 22.244 169.046 22.244C167.761 22.2439 166.644 21.207 166.35 19.7406L164.887 12.426C164.831 12.1476 164.619 11.9507 164.375 11.9506C164.146 11.9507 163.944 12.124 163.874 12.3794L161.189 22.244H158.327L161.275 11.4095C161.705 9.82917 162.959 8.7561 164.375 8.7561C165.886 8.7561 167.198 9.9744 167.543 11.6972L169.006 19.0118C169.011 19.0338 169.027 19.0494 169.046 19.0494C169.066 19.0494 169.082 19.0344 169.087 19.0129L170.701 11.6365L170.719 11.5573C171.113 9.90481 172.399 8.7561 173.87 8.7561Z" fill="#003A30"/>
<path d="M16.5261 0L19.6458 3.04465L16.9497 5.67584C16.7043 5.91535 16.3479 5.91535 16.1024 5.67584L13.4064 3.04465L16.5261 0Z" fill="#0EAE93"/>
<path fill-rule="evenodd" clip-rule="evenodd" d="M16.1023 8.79985C16.3478 9.03933 16.7043 9.03933 16.9497 8.79985L21.2462 4.60669L23.7175 7.01856L18.2206 12.3832C17.239 13.3412 15.8131 13.3412 14.8314 12.3832L9.33447 7.01856L11.8058 4.60669L16.1023 8.79985Z" fill="#0EAE93"/>
<path d="M16.5261 31L13.4064 27.9553L16.1024 25.3241C16.3479 25.0847 16.7043 25.0847 16.9497 25.3241L19.6458 27.9553L16.5261 31Z" fill="#0EAE93"/>
<path fill-rule="evenodd" clip-rule="evenodd" d="M16.9497 22.2003C16.7043 21.9608 16.3478 21.9608 16.1023 22.2003L11.8058 26.3934L9.33447 23.9815L14.8314 18.6169C15.8131 17.6589 17.239 17.6589 18.2206 18.6169L23.7175 23.9815L21.2462 26.3934L16.9497 22.2003Z" fill="#0EAE93"/>
<path d="M32.4083 15.5L29.2886 12.4553L26.7789 14.9046C26.4614 15.2145 26.4614 15.7855 26.7789 16.0953L29.2886 18.5447L32.4083 15.5Z" fill="#0EAE93"/>
<path fill-rule="evenodd" clip-rule="evenodd" d="M23.5781 16.0953C23.2605 15.7854 23.2605 15.2144 23.5781 14.9046L27.6881 10.8933L25.2168 8.48145L20.4655 13.1184C19.1956 14.3578 19.1956 16.642 20.4655 17.8814L25.2168 22.5184L27.6881 20.1065L23.5781 16.0953Z" fill="#0EAE93"/>
<path d="M0.643677 15.5L3.76341 18.5447L6.27309 16.0953C6.59058 15.7855 6.59058 15.2145 6.27309 14.9046L3.76341 12.4553L0.643677 15.5Z" fill="#0EAE93"/>
<path fill-rule="evenodd" clip-rule="evenodd" d="M9.47399 14.9048C9.79151 15.2147 9.79151 15.7857 9.47406 16.0955L5.36389 20.1068L7.83526 22.5186L12.5865 17.8817C13.8565 16.6423 13.8565 14.358 12.5865 13.1187L7.83526 8.48169L5.36389 10.8936L9.47399 14.9048Z" fill="#0EAE93"/>
</g>
<defs>
<clipPath id="clip0_142_4599">
<rect width="180" height="31" fill="white"/>
</clipPath>
</defs>
</svg>
