<svg width="178" height="31" viewBox="0 0 178 31" fill="none" xmlns="http://www.w3.org/2000/svg">
<g clip-path="url(#clip0_142_4654)">
<path d="M68.4827 9.63501C68.4827 15.3961 68.4827 17.6704 60.8264 17.6704C68.4827 17.6704 68.4827 19.9446 68.4827 25.7057C68.4827 19.9788 68.4827 17.6704 76.019 17.6704C68.4827 17.6704 68.4827 15.3619 68.4827 9.63501Z" fill="#222222"/>
<path fill-rule="evenodd" clip-rule="evenodd" d="M30.7338 30.5225C28.0859 30.5225 25.7581 29.9939 23.7502 28.9367C21.7642 27.8574 20.2086 26.3597 19.0834 24.4434C18.9021 24.1249 18.7357 23.7979 18.5842 23.4621L17.6951 30.0599H0.0539551V29.7297H0.0870835C0.881398 29.7297 1.5213 29.5203 2.00671 29.1019C2.49213 28.6834 2.73484 28.0777 2.73484 27.2847V8.25438C2.73484 7.46154 2.49213 6.82271 2.00671 6.33816C1.5213 5.85361 0.881398 5.61133 0.0870835 5.61133H0.0539551V5.28092H10.6122V5.61133H10.4798C9.68535 5.61133 9.04546 5.85361 8.56009 6.33816C8.07464 6.82271 7.83196 7.46154 7.83196 8.25438V27.4169C7.83196 28.1218 7.99746 28.6724 8.32839 29.0688C8.68143 29.4433 9.28822 29.6305 10.1488 29.6305H10.8438C12.8076 29.6305 14.4625 29.0248 15.8085 27.8133C17.1213 26.6318 17.9617 24.9789 18.3299 22.8545C17.7289 21.3005 17.4285 19.5724 17.4285 17.6705C17.4285 15.0934 17.9801 12.8468 19.0834 10.9305C20.2086 8.99225 21.7642 7.49447 23.7502 6.43722C25.7581 5.35799 28.0859 4.81836 30.7338 4.81836C33.3178 4.81836 35.5866 5.33234 37.5402 6.36016C39.624 5.33234 42.044 4.81836 44.8004 4.81836C45.6609 4.81836 46.3669 4.85143 46.9186 4.91743C47.4923 4.96157 47.9998 5.01664 48.441 5.08264C48.8824 5.14877 49.3678 5.21477 49.8974 5.28092C50.449 5.32491 51.1331 5.34692 51.9494 5.34692L52.9424 11.9548H52.6114C52.2142 9.86229 51.3206 8.22134 49.9305 7.03192C48.5625 5.84254 46.8524 5.24785 44.8004 5.24785C43.5426 5.24785 42.3952 5.54519 41.3581 6.13988C40.675 6.53167 40.0588 7.02379 39.5097 7.61638C39.2542 7.89198 39.0132 8.1895 38.7867 8.50873C38.7612 8.54472 38.7357 8.58101 38.7106 8.61768C38.4976 8.93313 38.298 9.26747 38.1115 9.62072C37.8661 10.0855 37.6435 10.5835 37.4439 11.1135C37.3612 11.3322 37.2826 11.5567 37.2079 11.7868C37.1309 12.0241 37.058 12.2673 36.9893 12.5164C36.5921 14.0362 36.3935 15.7212 36.3935 17.5713C36.3935 19.2768 36.5491 20.8451 36.8604 22.2764L36.3344 23.8359C36.0591 24.6519 35.7296 25.3659 35.3511 25.9844C35.1181 26.3514 34.8714 26.6809 34.612 26.9751L34.5872 27.0033C33.768 26.2583 33.0682 25.4051 32.488 24.4434C31.3185 22.5051 30.7338 20.2254 30.7338 17.6044C30.7338 15.0494 31.3185 12.8138 32.488 10.8975C33.2864 9.58904 34.301 8.48098 35.5316 7.57306C35.0341 6.99674 34.483 6.51906 33.8781 6.13988C32.9293 5.54519 31.8811 5.24785 30.7338 5.24785C29.5864 5.24785 28.5383 5.54519 27.5894 6.13988C26.6407 6.73458 25.8353 7.57154 25.1733 8.65095C24.4893 9.7302 23.9597 11.0406 23.5847 12.5824C23.2316 14.1022 23.055 15.7872 23.055 17.6374C23.055 19.4876 23.2316 21.1725 23.5847 22.6923C23.9597 24.2121 24.4893 25.5116 25.1733 26.5909C25.8353 27.6703 26.6407 28.5072 27.5894 29.1019C28.5383 29.6966 29.5864 29.9939 30.7338 29.9939C31.8811 29.9939 32.9293 29.6966 33.8781 29.1019C34.8268 28.5072 35.6433 27.6703 36.3273 26.5909C36.9893 25.5116 37.4967 24.2121 37.8497 22.6923C38.2249 21.1725 38.4124 19.4876 38.4124 17.6374C38.4124 15.9646 38.2591 14.4268 37.9524 13.0241L38.5203 11.5169C38.8435 10.6591 39.2255 9.91023 39.6613 9.26339C39.7777 9.09455 39.898 8.93343 40.0221 8.77971C40.1299 8.64604 40.2405 8.5181 40.3541 8.39562L40.3789 8.37475C41.1473 9.11867 41.8046 9.97049 42.3511 10.9305C43.4764 12.8468 44.0391 15.0934 44.0391 17.6705C44.0391 20.2475 43.4764 22.5051 42.3511 24.4434C41.6031 25.7425 40.6472 26.8494 39.4834 27.7639C39.972 28.2977 40.5087 28.7437 41.0934 29.1019C42.0864 29.6966 43.1896 29.9939 44.4032 29.9939C45.3078 29.9939 46.1684 29.8398 46.9848 29.5314C47.8233 29.223 48.4632 28.8376 48.9044 28.375V19.9502C48.9044 19.1572 48.6618 18.5184 48.1763 18.0338C47.6909 17.5493 47.051 17.307 46.2566 17.307H46.1574V16.9766H55.1906C55.2818 14.6881 55.8288 12.6728 56.8319 10.9305C57.9572 8.99225 59.5129 7.49447 61.4987 6.43722C63.5066 5.35799 65.8345 4.81836 68.4824 4.81836C71.1301 4.81836 73.447 5.35799 75.4328 6.43722C77.4406 7.49447 78.9964 8.99225 80.1 10.9305C80.8248 12.1651 81.3164 13.5369 81.574 15.0458V8.25438C81.574 7.46154 81.3316 6.82271 80.846 6.33816C80.3605 5.85361 79.7205 5.61133 78.9259 5.61133H78.8933V5.28092H98.8074C100.506 5.30291 101.985 5.60026 103.242 6.17295C104.522 6.72364 105.515 7.49447 106.221 8.48574C106.487 8.84738 106.704 9.23269 106.873 9.64144C107.144 8.36552 107.803 7.31945 108.849 6.50337C110.283 5.37998 112.17 4.81836 114.508 4.81836C115.083 4.81836 115.546 4.84036 115.899 4.8845C116.048 4.90201 116.194 4.92121 116.336 4.94223C116.551 4.97404 116.759 5.00977 116.958 5.04957C117.311 5.11571 117.719 5.17078 118.183 5.21477C118.646 5.25891 119.242 5.28092 119.97 5.28092H130.425V5.61133H130.326C129.532 5.61133 128.892 5.85361 128.407 6.33816C127.921 6.82271 127.678 7.46154 127.678 8.25438V21.3708C127.678 23.7055 128.274 25.5558 129.466 26.9213C130.679 28.265 132.312 28.9367 134.364 28.9367C136.438 28.9367 138.071 28.2538 139.263 26.8883C140.454 25.5007 141.05 23.6615 141.05 21.3708V8.75C141.05 7.80291 140.763 7.05406 140.19 6.50337C139.616 5.95267 138.854 5.65533 137.906 5.61133V5.28092H148.829L156.905 23.9478L164.981 5.28092H171.17V5.61133C170.464 5.61133 169.868 5.82054 169.382 6.23909C168.897 6.65751 168.677 7.2302 168.72 7.957L170.409 27.516C170.519 28.265 170.872 28.8266 171.468 29.201C172.086 29.5754 172.693 29.7626 173.288 29.7626V30.0599H163.028V29.7626C163.403 29.7626 163.789 29.6746 164.186 29.4983C164.583 29.3222 164.904 29.0688 165.146 28.7384C165.411 28.408 165.51 28.0226 165.444 27.5821L163.822 9.34467L154.621 30.5225L145.354 9.31163L143.798 26.6901C143.71 27.571 143.963 28.287 144.559 28.8376C145.155 29.3882 145.883 29.6855 146.744 29.7297V30.0599H140.125V29.7297C140.962 29.6855 141.669 29.3772 142.242 28.8046C142.817 28.2318 143.147 27.516 143.235 26.657L144.89 8.38654C144.471 7.52754 143.941 6.85579 143.301 6.37123C143.192 6.28169 143.078 6.20014 142.957 6.12643C142.783 6.23517 142.622 6.36072 142.473 6.50337C141.899 7.05406 141.613 7.80291 141.613 8.75V21.3708C141.613 23.221 141.227 24.8289 140.454 26.1945C139.704 27.5601 138.612 28.6283 137.177 29.3993C135.765 30.1481 134.077 30.5225 132.114 30.5225C130.172 30.5225 128.484 30.1481 127.05 29.3993C125.616 28.6503 124.501 27.593 123.707 26.2275C122.934 24.8398 122.548 23.221 122.548 21.3708V8.25438C122.548 7.46154 122.306 6.82271 121.82 6.33816C121.352 5.87112 120.741 5.62927 119.986 5.61231L120.301 11.9548H119.97C119.661 9.9063 118.999 8.28742 117.984 7.09806C116.969 5.90867 115.745 5.31398 114.31 5.31398C113.295 5.31398 112.479 5.61133 111.861 6.20602C111.265 6.80071 110.967 7.5937 110.967 8.58479C110.967 9.44372 111.243 10.2698 111.795 11.0628C112.369 11.8336 113.35 12.7367 114.74 13.7719L116.164 14.8292C117.62 15.8864 118.768 16.8665 119.606 17.7696C120.467 18.6506 121.084 19.5096 121.46 20.3466C121.835 21.1836 122.022 22.0756 122.022 23.0227C122.022 24.4764 121.658 25.765 120.929 26.8882C120.201 28.0116 119.186 28.8926 117.884 29.5314C116.605 30.1481 115.093 30.4785 113.35 30.5225C112.777 30.5225 112.302 30.5005 111.927 30.4565C111.574 30.4123 111.221 30.3573 110.868 30.2913C110.515 30.2251 110.085 30.1701 109.578 30.1261C109.07 30.0821 108.375 30.0599 107.492 30.0599L106.333 21.4698H106.731C107.062 24.179 107.812 26.2715 108.981 27.7473C110.173 29.201 111.695 29.9278 113.549 29.9278C114.917 29.9278 116.031 29.5425 116.892 28.7715C117.753 28.0005 118.183 26.9983 118.183 25.765C118.183 25.2363 118.084 24.7297 117.884 24.2452C117.708 23.7607 117.4 23.243 116.958 22.6923C116.516 22.1418 115.932 21.547 115.204 20.9082C114.476 20.2475 113.571 19.5096 112.49 18.6946L111.133 17.6705C109.478 16.415 108.331 15.2916 107.691 14.3005C107.488 13.9875 107.318 13.6656 107.18 13.3349C107.014 14.1342 106.695 14.8635 106.221 15.523C105.515 16.5141 104.5 17.2961 103.176 17.8686C101.874 18.4194 100.33 18.6946 98.5423 18.6946H95.4973V27.0865C95.4973 27.8794 95.7397 28.5182 96.2252 29.0027C96.7108 29.4874 97.3508 29.7297 98.1454 29.7297H98.2113V30.0599H78.8933V29.7297H78.9259C79.7205 29.7297 80.3605 29.4874 80.846 29.0027C81.3316 28.5182 81.574 27.8794 81.574 27.0865V20.2994C81.3164 21.8133 80.8248 23.1946 80.1 24.4434C78.9964 26.3597 77.4406 27.8574 75.4328 28.9367C73.447 29.9939 71.1301 30.5225 68.4824 30.5225C65.8345 30.5225 63.5066 29.9939 61.4987 28.9367C59.5129 27.8574 57.9572 26.3597 56.8319 24.4434C55.7332 22.5131 55.1815 20.2662 55.177 17.7023C55.0283 17.7962 54.8902 17.9066 54.7628 18.0338C54.2773 18.5184 54.0346 19.1572 54.0346 19.9502V28.375C53.5933 28.8155 52.8872 29.201 51.9163 29.5314C50.9676 29.8398 49.8864 30.0821 48.6727 30.2583C47.4813 30.4345 46.2897 30.5225 45.0983 30.5225C42.218 30.5225 39.7097 30.0134 37.5734 28.995C35.6123 30.0134 33.3324 30.5225 30.7338 30.5225ZM71.6266 29.1019C70.6778 29.6966 69.6297 29.9939 68.4824 29.9939C67.3349 29.9939 66.2869 29.6966 65.338 29.1019C64.3892 28.5072 63.5839 27.6703 62.9219 26.5909C62.2379 25.5116 61.7083 24.2121 61.3332 22.6923C60.9802 21.1725 60.8036 19.4876 60.8036 17.6374C60.8036 15.7872 60.9802 14.1022 61.3332 12.5824C61.7083 11.0406 62.2379 9.7302 62.9219 8.65095C63.5839 7.57154 64.3892 6.73458 65.338 6.13988C66.2869 5.54519 67.3349 5.24785 68.4824 5.24785C69.6297 5.24785 70.6778 5.54519 71.6266 6.13988C72.5754 6.73458 73.3919 7.57154 74.0758 8.65095C74.7378 9.7302 75.2453 11.0406 75.5983 12.5824C75.9734 14.1022 76.1612 15.7872 76.1612 17.6374C76.1612 19.4876 75.9734 21.1725 75.5983 22.6923C75.2453 24.2121 74.7378 25.5116 74.0758 26.5909C73.3919 27.6703 72.5754 28.5072 71.6266 29.1019ZM89.6718 29.0027C89.362 29.3124 88.9886 29.5231 88.5523 29.6349C88.116 29.5231 87.7426 29.3124 87.432 29.0027C86.9473 28.5182 86.7041 27.8794 86.7041 27.0865V8.25438C86.7041 7.46154 86.9473 6.82271 87.432 6.33816C87.7426 6.02849 88.116 5.81773 88.5523 5.70606C88.9886 5.81773 89.362 6.02849 89.6718 6.33816C90.1573 6.82271 90.4005 7.46154 90.4005 8.25438V27.0865C90.4005 27.8794 90.1573 28.5182 89.6718 29.0027ZM97.45 18.2652H95.4973V5.7104H97.4167C98.3658 5.7104 99.1929 5.98574 99.8996 6.53644C100.606 7.06499 101.146 7.80291 101.521 8.75C101.918 9.69709 102.117 10.7763 102.117 11.9878C102.117 13.1993 101.918 14.2785 101.521 15.2256C101.146 16.1727 100.606 16.9215 99.8996 17.4722C99.2156 18.0009 98.3991 18.2652 97.45 18.2652Z" fill="#222222"/>
<path d="M177.647 2.57437C177.647 3.84232 176.618 4.87018 175.347 4.87018C174.077 4.87018 173.047 3.84232 173.047 2.57437C173.047 1.30644 174.077 0.278564 175.347 0.278564C176.618 0.278564 177.647 1.30644 177.647 2.57437Z" fill="#222222"/>
</g>
<defs>
<clipPath id="clip0_142_4654">
<rect width="178" height="31" fill="white"/>
</clipPath>
</defs>
</svg>
