<svg width="156" height="41" viewBox="0 0 156 41" fill="none" xmlns="http://www.w3.org/2000/svg">
<g clip-path="url(#clip0_142_4481)">
<path d="M14.4036 30.7925C14.4032 30.8338 14.403 30.8753 14.403 30.9168C14.403 31.2352 14.4141 31.5476 14.4366 31.8541H20.6922C20.6359 31.5575 20.6077 31.2451 20.6077 30.9168C20.6077 30.8751 20.6082 30.8337 20.6091 30.7925H14.4036Z" fill="#381E63" fill-opacity="0.42"/>
<path d="M6.77117 30.7925V31.8541H0.836182V30.7925H6.77117Z" fill="#381E63" fill-opacity="0.42"/>
<path d="M14.459 29.7123H20.7551C20.8352 29.403 20.9479 29.1085 21.0933 28.8289C21.1276 28.7681 21.1633 28.7088 21.2001 28.6506H14.6106C14.544 28.9962 14.4935 29.35 14.459 29.7123Z" fill="#381E63" fill-opacity="0.42"/>
<path d="M6.77117 28.6506V29.7123H0.836182V28.6506H6.77117Z" fill="#381E63" fill-opacity="0.42"/>
<path d="M13.8488 27.5704C13.6008 27.3291 13.2559 27.1442 12.8141 27.0157C12.3285 26.8874 11.6361 26.8233 10.7369 26.8233H6.77117V27.5704H0.836182V26.5088H14.1629V27.5704H13.8488Z" fill="#381E63" fill-opacity="0.42"/>
<path d="M14.879 27.5704H22.2305C22.3161 27.5106 22.4047 27.4538 22.4962 27.4001C23.0897 27.0522 23.7731 26.8782 24.5465 26.8782C25.3199 26.8782 25.9943 27.0522 26.5698 27.4001C26.6614 27.4538 26.7497 27.5106 26.8349 27.5704H34.1694C34.0913 27.3258 34.004 27.086 33.9076 26.8507C33.8619 26.7353 33.8144 26.6213 33.7651 26.5088H15.2788C15.2279 26.6213 15.1787 26.7353 15.1314 26.8507C15.0383 27.086 14.9542 27.3258 14.879 27.5704Z" fill="#381E63" fill-opacity="0.42"/>
<path d="M15.848 25.4285H33.2084C32.9849 25.0554 32.7372 24.7015 32.4653 24.3669H16.5989C16.3256 24.7015 16.0753 25.0554 15.848 25.4285Z" fill="#381E63" fill-opacity="0.42"/>
<path d="M17.6434 23.2865H31.4291C30.9774 22.887 30.4871 22.5331 29.9579 22.2249H19.1207C18.5936 22.5331 18.1013 22.887 17.6434 23.2865Z" fill="#381E63" fill-opacity="0.42"/>
<path d="M14.1629 22.2249V23.2865H0.728563C0.698707 23.1026 0.662623 22.9352 0.620334 22.7844C0.567007 22.5749 0.499132 22.3883 0.416748 22.2249H14.1629Z" fill="#381E63" fill-opacity="0.42"/>
<path d="M40.9096 22.2249C40.8842 22.2373 40.8588 22.2498 40.8335 22.2624C40.2442 22.559 39.7025 22.9004 39.2083 23.2865H52.477C52.4805 23.2747 52.4841 23.263 52.4877 23.2515C52.6136 22.8485 52.8114 22.5371 53.0812 22.3173V22.2249H40.9096Z" fill="#381E63" fill-opacity="0.42"/>
<path d="M58.0595 22.2249C57.5325 22.5331 57.0401 22.887 56.5823 23.2865H70.368C69.9163 22.887 69.4259 22.5331 68.8967 22.2249H58.0595Z" fill="#381E63" fill-opacity="0.42"/>
<path d="M99.6517 22.2249H108.08C108.397 22.3982 108.69 22.5939 108.958 22.8118C109.143 22.9626 109.313 23.121 109.471 23.2865H99.6517V22.2249Z" fill="#381E63" fill-opacity="0.42"/>
<path d="M82.7445 22.2249H89.5276C89.4446 22.3798 89.3705 22.5572 89.3051 22.7569C89.2543 22.9119 89.2116 23.0884 89.1767 23.2865H83.0332C83.007 23.1026 82.9754 22.9352 82.9384 22.7844C82.8851 22.5749 82.8204 22.3883 82.7445 22.2249Z" fill="#381E63" fill-opacity="0.42"/>
<path d="M74.6956 22.2249H81.3961C81.3201 22.3883 81.2555 22.5749 81.2022 22.7844C81.1651 22.9352 81.1335 23.1026 81.1075 23.2865H74.9842C74.958 23.1026 74.9265 22.9352 74.8895 22.7844C74.8362 22.5749 74.7715 22.3883 74.6956 22.2249Z" fill="#381E63" fill-opacity="0.42"/>
<path d="M71.4042 24.3669H55.5378C55.2643 24.7015 55.0141 25.0554 54.7869 25.4285H72.1472C71.9237 25.0554 71.6759 24.7015 71.4042 24.3669Z" fill="#381E63" fill-opacity="0.42"/>
<path d="M75.0784 25.4285V24.9C75.0784 24.7141 75.0756 24.5364 75.0703 24.3669H81.0215C81.0161 24.5364 81.0134 24.7141 81.0134 24.9V25.4285H75.0784Z" fill="#381E63" fill-opacity="0.42"/>
<path d="M72.7038 26.5088H54.2176C54.1668 26.6213 54.1176 26.7353 54.0703 26.8507C53.9772 27.086 53.8931 27.3258 53.8179 27.5704H61.1693C61.2549 27.5106 61.3435 27.4538 61.435 27.4001C62.0285 27.0522 62.712 26.8782 63.4853 26.8782C64.2587 26.8782 64.9331 27.0522 65.5086 27.4001C65.6002 27.4538 65.6886 27.5106 65.7737 27.5704H73.1081C73.0302 27.3258 72.943 27.086 72.8465 26.8507C72.8008 26.7353 72.7533 26.6213 72.7038 26.5088Z" fill="#381E63" fill-opacity="0.42"/>
<path d="M75.0784 27.5704V26.5088H81.0134V27.5704H75.0784Z" fill="#381E63" fill-opacity="0.42"/>
<path d="M73.3866 28.6506H66.7828C66.8182 28.7088 66.852 28.7681 66.8845 28.8289C67.038 29.1085 67.1569 29.403 67.2415 29.7123H73.5438C73.508 29.35 73.4555 28.9962 73.3866 28.6506Z" fill="#381E63" fill-opacity="0.42"/>
<path d="M75.0784 29.7123V28.6506H81.0134V29.7123H75.0784Z" fill="#381E63" fill-opacity="0.42"/>
<path d="M73.6012 30.7925H67.3955C67.3965 30.8337 67.397 30.8751 67.397 30.9168C67.397 31.2451 67.3674 31.5575 67.308 31.8541H73.567C73.5902 31.5476 73.6018 31.2352 73.6018 30.9168C73.6018 30.8753 73.6016 30.8338 73.6012 30.7925Z" fill="#381E63" fill-opacity="0.42"/>
<path d="M75.0784 31.8541V30.7925H81.0134V31.8541H75.0784Z" fill="#381E63" fill-opacity="0.42"/>
<path d="M73.4331 32.9343H66.9233C66.9106 32.958 66.8976 32.9815 66.8845 33.0048C66.6802 33.3863 66.4222 33.7167 66.1106 33.9959H73.1893C73.2884 33.6511 73.3697 33.2974 73.4331 32.9343Z" fill="#381E63" fill-opacity="0.42"/>
<path d="M75.0784 33.9959V32.9343H81.0134V33.9959H75.0784Z" fill="#381E63" fill-opacity="0.42"/>
<path d="M72.809 35.0762H54.109C54.2644 35.4453 54.4381 35.799 54.6298 36.1379H72.3016C72.4896 35.799 72.6588 35.4453 72.809 35.0762Z" fill="#381E63" fill-opacity="0.42"/>
<path d="M75.0784 36.1379V35.0762H81.0134V36.1379H75.0784Z" fill="#381E63" fill-opacity="0.42"/>
<path d="M71.5992 37.2183H55.3416C55.5972 37.5538 55.8749 37.8712 56.1745 38.1703C56.2121 38.2072 56.2502 38.2437 56.2883 38.2799H70.6575C70.695 38.2437 70.7322 38.2072 70.7691 38.1703C71.0689 37.8712 71.3454 37.5538 71.5992 37.2183Z" fill="#381E63" fill-opacity="0.42"/>
<path d="M75.0161 38.2799C75.0498 37.9696 75.0698 37.6158 75.0761 37.2183H81.0155C81.0218 37.6158 81.0418 37.9696 81.0755 38.2799H75.0161Z" fill="#381E63" fill-opacity="0.42"/>
<path d="M69.3003 39.3601H57.6569C58.1942 39.7103 58.7702 40.0097 59.3847 40.2583C60.6257 40.7529 61.9926 41.0001 63.4853 41.0001C64.9601 41.0001 66.3179 40.7529 67.5588 40.2583C68.1825 40.0097 68.763 39.7103 69.3003 39.3601Z" fill="#381E63" fill-opacity="0.42"/>
<path d="M50.977 38.2799V37.2183H37.8129C38.1307 37.6018 38.4815 37.9556 38.8653 38.2799H50.977Z" fill="#381E63" fill-opacity="0.42"/>
<path d="M40.4659 39.3601H50.977V40.7529C50.5813 40.6246 50.1856 40.5606 49.79 40.5606C49.5202 40.5606 49.1335 40.5972 48.63 40.6705C48.1444 40.7436 47.5778 40.7803 46.9304 40.7803C44.6103 40.7803 42.614 40.3865 40.9414 39.5989C40.7793 39.5227 40.6208 39.443 40.4659 39.3601Z" fill="#381E63" fill-opacity="0.42"/>
<path d="M31.7185 38.2799C31.756 38.2437 31.7932 38.2072 31.8302 38.1703C32.1298 37.8712 32.4065 37.5538 32.6602 37.2183H16.4026C16.6582 37.5538 16.9359 37.8712 17.2355 38.1703C17.2732 38.2072 17.3111 38.2437 17.3494 38.2799H31.7185Z" fill="#381E63" fill-opacity="0.42"/>
<path d="M18.718 39.3601H30.3614C29.8241 39.7103 29.2436 40.0097 28.62 40.2583C27.379 40.7529 26.0212 41.0001 24.5465 41.0001C23.0537 41.0001 21.6868 40.7529 20.4459 40.2583C19.8314 40.0097 19.2554 39.7103 18.718 39.3601Z" fill="#381E63" fill-opacity="0.42"/>
<path d="M6.84518 38.2799C6.80515 37.9701 6.78138 37.6162 6.77383 37.2183H0.834C0.827653 37.6158 0.807676 37.9696 0.774048 38.2799H6.84518Z" fill="#381E63" fill-opacity="0.42"/>
<path d="M0.548393 39.3601H7.11879C7.26531 39.7103 7.4462 39.9732 7.66142 40.1484V40.3958H0.0808105V40.1484C0.273559 39.9662 0.429427 39.7034 0.548393 39.3601Z" fill="#381E63" fill-opacity="0.42"/>
<path d="M0.836182 36.1379H6.77117V35.0762H0.836182V36.1379Z" fill="#381E63" fill-opacity="0.42"/>
<path d="M0.836182 33.9959H6.77117V32.9343H0.836182V33.9959Z" fill="#381E63" fill-opacity="0.42"/>
<path d="M14.5657 32.9343C14.6268 33.2974 14.7052 33.6511 14.8008 33.9959H21.8905C21.5747 33.7167 21.3089 33.3863 21.0933 33.0048C21.0808 32.9815 21.0686 32.958 21.0565 32.9343H14.5657Z" fill="#381E63" fill-opacity="0.42"/>
<path d="M27.9845 32.9343C27.9718 32.958 27.9588 32.9815 27.9456 33.0048C27.7414 33.3863 27.4833 33.7167 27.1716 33.9959H34.2504C34.3495 33.6511 34.4309 33.2974 34.4943 32.9343H27.9845Z" fill="#381E63" fill-opacity="0.42"/>
<path d="M35.905 32.9343C35.967 33.2999 36.0459 33.6538 36.1416 33.9959H43.3471C43.0198 33.7392 42.7484 33.4364 42.533 33.0874C42.502 33.0371 42.4722 32.9861 42.4436 32.9343H35.905Z" fill="#381E63" fill-opacity="0.42"/>
<path d="M42.0467 31.8541H35.7738C35.7477 31.5141 35.7347 31.1651 35.7347 30.807C35.7347 30.8021 35.7347 30.7973 35.7347 30.7925H41.9395C41.9403 31.169 41.976 31.5229 42.0467 31.8541Z" fill="#381E63" fill-opacity="0.42"/>
<path d="M52.949 31.8541H46.1368C46.3277 31.6177 46.4753 31.287 46.5797 30.862C46.5854 30.8392 46.5911 30.8161 46.5966 30.7925H52.4706C52.4762 30.8161 52.4818 30.8392 52.4877 30.862C52.592 31.287 52.7458 31.6177 52.949 31.8541Z" fill="#381E63" fill-opacity="0.42"/>
<path d="M53.5046 32.9343C53.5657 33.2974 53.6441 33.6511 53.7397 33.9959H60.8295C60.5137 33.7167 60.248 33.3863 60.0323 33.0048C60.0198 32.9815 60.0075 32.958 59.9955 32.9343H53.5046Z" fill="#381E63" fill-opacity="0.42"/>
<path d="M59.631 31.8541H53.3753C53.353 31.5476 53.3418 31.2352 53.3418 30.9168C53.3418 30.8753 53.342 30.8338 53.3424 30.7925H59.5481C59.5471 30.8337 59.5466 30.8751 59.5466 30.9168C59.5466 31.2451 59.5747 31.5575 59.631 31.8541Z" fill="#381E63" fill-opacity="0.42"/>
<path d="M59.694 29.7123C59.7741 29.403 59.8869 29.1085 60.0323 28.8289C60.0666 28.7681 60.1022 28.7088 60.1391 28.6506H53.5495C53.483 28.9962 53.4325 29.35 53.3979 29.7123H59.694Z" fill="#381E63" fill-opacity="0.42"/>
<path d="M52.327 29.7123C52.3083 29.4217 52.2989 29.0998 52.2989 28.7465V28.6506H46.7686V28.7465C46.7686 29.0998 46.7592 29.4217 46.7405 29.7123H52.327Z" fill="#381E63" fill-opacity="0.42"/>
<path d="M42.047 29.7123C42.1278 29.3328 42.2544 28.9789 42.4268 28.6506H35.9353C35.8678 28.9951 35.8173 29.3491 35.7839 29.7123H42.047Z" fill="#381E63" fill-opacity="0.42"/>
<path d="M34.6048 29.7123C34.569 29.35 34.5166 28.9962 34.4476 28.6506H27.844C27.8792 28.7088 27.913 28.7681 27.9455 28.8289C28.099 29.1085 28.218 29.403 28.3025 29.7123H34.6048Z" fill="#381E63" fill-opacity="0.42"/>
<path d="M28.4566 30.7925C28.4576 30.8337 28.4581 30.8751 28.4581 30.9168C28.4581 31.2451 28.4284 31.5575 28.369 31.8541H34.628C34.6513 31.5476 34.6629 31.2352 34.6629 30.9168C34.6629 30.8753 34.6627 30.8338 34.6623 30.7925H28.4566Z" fill="#381E63" fill-opacity="0.42"/>
<path d="M36.2126 27.5704H43.3278C43.5443 27.3918 43.7831 27.2344 44.0437 27.0981C44.7272 26.7683 45.5276 26.6035 46.4448 26.6035C46.5534 26.6035 46.6613 26.6046 46.7685 26.6069V27.5704H52.2989V26.5088H36.6304C36.4694 26.8507 36.3302 27.2047 36.2126 27.5704Z" fill="#381E63" fill-opacity="0.42"/>
<path d="M37.2366 25.4285H52.2988V25.1473C52.2988 24.862 52.3058 24.6019 52.3196 24.3669H38.052C37.7558 24.6979 37.484 25.0517 37.2366 25.4285Z" fill="#381E63" fill-opacity="0.42"/>
<path d="M50.977 35.0762H36.5165C36.6717 35.446 36.8498 35.7999 37.0511 36.1379H50.977V35.0762Z" fill="#381E63" fill-opacity="0.42"/>
<path d="M33.3627 36.1379C33.5508 35.799 33.72 35.4453 33.8701 35.0762H15.17C15.3255 35.4453 15.4993 35.799 15.691 36.1379H33.3627Z" fill="#381E63" fill-opacity="0.42"/>
<path d="M74.7906 39.3601H81.3011C81.4201 39.7034 81.576 39.9662 81.7687 40.1484V40.3958H74.323V40.1484C74.5157 39.9662 74.6716 39.7034 74.7906 39.3601Z" fill="#381E63" fill-opacity="0.42"/>
<path d="M82.8095 39.3601C82.6841 39.7034 82.5113 39.9662 82.291 40.1484V40.3958H90.9507C92.5693 40.3958 93.9542 40.1301 95.1053 39.5989C95.2757 39.5242 95.4403 39.4446 95.5992 39.3601H82.8095Z" fill="#381E63" fill-opacity="0.42"/>
<path d="M101.487 39.3601C102.734 40.197 104.405 40.6154 106.504 40.6154C106.99 40.6154 107.43 40.588 107.826 40.533C108.222 40.4781 108.519 40.4506 108.716 40.4506C109.022 40.4506 109.355 40.5148 109.714 40.643V39.3601H101.487Z" fill="#381E63" fill-opacity="0.42"/>
<path d="M109.714 38.2799H100.296C100.035 37.9537 99.8225 37.5999 99.6587 37.2183H109.714V38.2799Z" fill="#381E63" fill-opacity="0.42"/>
<path d="M111.605 39.3601C111.487 39.7034 111.331 39.9662 111.137 40.1484V40.3958H118.557V40.1484C118.364 39.9662 118.208 39.7034 118.089 39.3601H111.605Z" fill="#381E63" fill-opacity="0.42"/>
<path d="M117.882 38.2799H111.831C111.865 37.9696 111.884 37.6158 111.891 37.2183H117.83C117.835 37.6158 117.852 37.9696 117.882 38.2799Z" fill="#381E63" fill-opacity="0.42"/>
<path d="M121.084 39.3601C120.973 39.7034 120.814 39.9662 120.607 40.1484V40.3958H128.053V40.1484C127.847 39.9662 127.682 39.7034 127.56 39.3601H121.084Z" fill="#381E63" fill-opacity="0.42"/>
<path d="M127.332 38.2799H121.3C121.334 37.9696 121.354 37.6158 121.36 37.2183H127.273C127.279 37.6158 127.299 37.9696 127.332 38.2799Z" fill="#381E63" fill-opacity="0.42"/>
<path d="M128.909 39.3601C128.77 39.7062 128.586 39.969 128.356 40.1484V40.3958H134.858V40.2034C134.704 39.9263 134.619 39.6452 134.606 39.3601H128.909Z" fill="#381E63" fill-opacity="0.42"/>
<path d="M134.903 38.2799H129.163C129.201 37.9714 129.226 37.6176 129.237 37.2183H135.829L135.45 37.5933C135.221 37.8269 135.039 38.0558 134.903 38.2799Z" fill="#381E63" fill-opacity="0.42"/>
<path d="M143.334 39.3601C143.316 39.6449 143.232 39.9259 143.085 40.2034V40.3958H149.505V40.1484C149.289 39.969 149.108 39.7062 148.962 39.3601H143.334Z" fill="#381E63" fill-opacity="0.42"/>
<path d="M148.698 38.2799H143.079C142.94 38.0327 142.744 37.7855 142.491 37.5384L142.178 37.2183H148.623C148.635 37.6176 148.66 37.9714 148.698 38.2799Z" fill="#381E63" fill-opacity="0.42"/>
<path d="M148.616 36.1379V35.0762H140.087L141.124 36.1379H148.616Z" fill="#381E63" fill-opacity="0.42"/>
<path d="M136.916 36.1379L137.985 35.0762H129.245V36.1379H136.916Z" fill="#381E63" fill-opacity="0.42"/>
<path d="M127.27 36.1379V35.0762H121.362V36.1379H127.27Z" fill="#381E63" fill-opacity="0.42"/>
<path d="M117.828 36.1379V35.0762H111.893V36.1379H117.828Z" fill="#381E63" fill-opacity="0.42"/>
<path d="M109.714 36.1379V35.0762H109.016C108.958 35.1177 108.899 35.1563 108.839 35.1921C108.764 35.2368 108.688 35.277 108.608 35.3127C108.512 35.3551 108.399 35.3919 108.27 35.4232C108.256 35.4267 108.241 35.4301 108.227 35.4335C108.202 35.4392 108.175 35.4448 108.149 35.4501C107.987 35.505 107.808 35.5325 107.61 35.5325C107.196 35.5325 106.873 35.4318 106.639 35.2303C106.582 35.1811 106.532 35.1298 106.489 35.0762H99.2469C99.2476 35.447 99.278 35.801 99.3383 36.1379H109.714Z" fill="#381E63" fill-opacity="0.42"/>
<path d="M98.4059 36.1379C98.5199 35.8023 98.6054 35.4483 98.6623 35.0762H91.806C91.446 35.2523 90.9901 35.3403 90.4382 35.3403H89.0623V35.0762H83.1273V36.1379H98.4059Z" fill="#381E63" fill-opacity="0.42"/>
<path d="M83.1247 37.2183C83.1174 37.6158 83.0946 37.9696 83.0562 38.2799H97.0717C97.3463 38.0039 97.5899 37.7018 97.8028 37.3735C97.8366 37.3223 97.8696 37.2705 97.9016 37.2183H83.1247Z" fill="#381E63" fill-opacity="0.42"/>
<path d="M83.1273 33.9959H89.0623V32.9343H83.1273V33.9959Z" fill="#381E63" fill-opacity="0.42"/>
<path d="M83.1273 31.8541H89.0623V30.7925H83.1273V31.8541Z" fill="#381E63" fill-opacity="0.42"/>
<path d="M83.1273 29.7123H97.4748C97.2031 29.3382 96.8861 28.9844 96.5239 28.6506H83.1273V29.7123Z" fill="#381E63" fill-opacity="0.42"/>
<path d="M83.1273 27.5704H95.069C94.4136 27.1802 93.6621 26.8262 92.8142 26.5088H83.1273V27.5704Z" fill="#381E63" fill-opacity="0.42"/>
<path d="M83.1273 25.4285H89.3102L89.0623 25.356V24.9C89.0623 24.7136 89.0655 24.5359 89.0719 24.3669H83.1193C83.1247 24.5364 83.1273 24.7141 83.1273 24.9V25.4285Z" fill="#381E63" fill-opacity="0.42"/>
<path d="M99.6517 24.3669V25.4285H110.697C110.589 25.0533 110.445 24.6995 110.263 24.3669H99.6517Z" fill="#381E63" fill-opacity="0.42"/>
<path d="M112.772 24.3669C112.595 24.7 112.445 25.0539 112.322 25.4285H126.842C126.718 25.0539 126.568 24.7 126.391 24.3669H112.772Z" fill="#381E63" fill-opacity="0.42"/>
<path d="M129.237 24.3669C129.243 24.5364 129.245 24.7141 129.245 24.9V25.4285H135.018V24.9C135.018 24.7141 135.022 24.5364 135.027 24.3669H129.237Z" fill="#381E63" fill-opacity="0.42"/>
<path d="M135.113 23.2865H129.152C129.126 23.1026 129.094 22.9352 129.057 22.7844C129.004 22.5749 128.939 22.3883 128.863 22.2249H135.402C135.325 22.3883 135.261 22.5749 135.208 22.7844C135.17 22.9352 135.139 23.1026 135.113 23.2865Z" fill="#381E63" fill-opacity="0.42"/>
<path d="M142.861 24.3669C142.867 24.5364 142.869 24.7141 142.869 24.9V25.4285H148.616V24.9C148.616 24.7141 148.618 24.5364 148.624 24.3669H142.861Z" fill="#381E63" fill-opacity="0.42"/>
<path d="M148.709 23.2865H142.775C142.749 23.1026 142.718 22.9352 142.681 22.7844C142.627 22.5749 142.561 22.3883 142.481 22.2249H149.003C148.924 22.3883 148.857 22.5749 148.804 22.7844C148.768 22.9352 148.735 23.1026 148.709 23.2865Z" fill="#381E63" fill-opacity="0.42"/>
<path d="M124.561 22.2249H114.612C114.192 22.5336 113.818 22.8874 113.49 23.2865H125.686C125.36 22.8874 124.985 22.5336 124.561 22.2249Z" fill="#381E63" fill-opacity="0.42"/>
<path d="M148.616 26.5088H142.869V27.5704H148.616V26.5088Z" fill="#381E63" fill-opacity="0.42"/>
<path d="M148.616 28.6506H142.869V29.7123H148.616V28.6506Z" fill="#381E63" fill-opacity="0.42"/>
<path d="M148.616 30.7925H142.869V30.9048L142.757 30.7925H129.245V31.8541H148.616V30.7925Z" fill="#381E63" fill-opacity="0.42"/>
<path d="M148.616 32.9343H129.245V33.9959H148.616V32.9343Z" fill="#381E63" fill-opacity="0.42"/>
<path d="M127.27 33.9959V32.9343H121.362V33.9959H127.27Z" fill="#381E63" fill-opacity="0.42"/>
<path d="M117.828 33.9959V32.9343H111.893V33.9959H117.828Z" fill="#381E63" fill-opacity="0.42"/>
<path d="M106.411 33.9959C106.444 33.9297 106.485 33.8649 106.531 33.8017C106.711 33.6002 106.999 33.3346 107.394 33.0048L107.488 32.9343H99.6711C99.527 33.2796 99.4197 33.6336 99.349 33.9959H106.411Z" fill="#381E63" fill-opacity="0.42"/>
<path d="M98.7467 33.9959C98.747 33.9679 98.7471 33.9397 98.7471 33.9116C98.7471 33.5761 98.7292 33.2503 98.6932 32.9343H92.6941C92.7368 33.1118 92.7582 33.3001 92.7582 33.4994C92.7582 33.6777 92.7399 33.8432 92.7034 33.9959H98.7467Z" fill="#381E63" fill-opacity="0.42"/>
<path d="M92.0293 31.8541H98.4904C98.3916 31.4848 98.2642 31.1308 98.1083 30.7925H89.6549L89.8176 30.8345C90.8229 31.1039 91.5601 31.4439 92.0293 31.8541Z" fill="#381E63" fill-opacity="0.42"/>
<path d="M101.228 30.7925C100.861 31.1236 100.542 31.4774 100.274 31.8541H108.822C109.136 31.5545 109.415 31.2421 109.66 30.9168C109.691 30.8756 109.721 30.8342 109.752 30.7925H101.228Z" fill="#381E63" fill-opacity="0.42"/>
<path d="M111.893 30.7925V31.8541H117.828V30.7925H111.893Z" fill="#381E63" fill-opacity="0.42"/>
<path d="M117.828 29.7123H111.893V28.6506H117.837C117.831 28.7434 117.828 28.8393 117.828 28.9388V29.7123Z" fill="#381E63" fill-opacity="0.42"/>
<path d="M121.362 30.7925V31.8541H127.27V30.7925H121.362Z" fill="#381E63" fill-opacity="0.42"/>
<path d="M127.27 29.7123H121.362V28.9388C121.362 28.8393 121.359 28.7434 121.353 28.6506H127.27V29.7123Z" fill="#381E63" fill-opacity="0.42"/>
<path d="M129.245 29.7123H135.018V28.6506H129.245V29.7123Z" fill="#381E63" fill-opacity="0.42"/>
<path d="M129.245 27.5704H135.018V26.5088H129.245V27.5704Z" fill="#381E63" fill-opacity="0.42"/>
<path d="M127.114 26.5088H112.05C111.988 26.8486 111.945 27.2024 111.919 27.5704H118.112C118.156 27.4895 118.206 27.4145 118.26 27.3453C118.566 26.979 119.006 26.7958 119.582 26.7958C120.157 26.7958 120.598 26.979 120.904 27.3453C120.961 27.4145 121.014 27.4895 121.06 27.5704H127.244C127.219 27.2024 127.175 26.8486 127.114 26.5088Z" fill="#381E63" fill-opacity="0.42"/>
<path d="M110.917 27.5704C110.924 27.4417 110.928 27.3117 110.928 27.1804C110.928 26.9507 110.918 26.7267 110.897 26.5088H103.293C103.413 26.5641 103.521 26.6324 103.617 26.7134C103.911 26.9462 104.072 27.2319 104.099 27.5704H110.917Z" fill="#381E63" fill-opacity="0.42"/>
<path d="M103.757 28.6506C103.747 28.6644 103.736 28.6779 103.725 28.6914C103.513 28.9537 103.141 29.2941 102.611 29.7123H110.382C110.465 29.5311 110.54 29.3464 110.604 29.1585C110.662 28.9919 110.713 28.8226 110.755 28.6506H103.757Z" fill="#381E63" fill-opacity="0.42"/>
<path d="M101.267 26.5088H99.6517V27.4552H99.8675L100.272 27.043C100.416 26.9331 100.569 26.8415 100.731 26.7683C100.894 26.6714 101.073 26.5848 101.267 26.5088Z" fill="#381E63" fill-opacity="0.42"/>
<path d="M137.192 28.6506L136.004 29.7123H141.677L140.616 28.6506H137.192Z" fill="#381E63" fill-opacity="0.42"/>
<path d="M139.538 27.5705H138.401L138.931 27.0981H139.065L139.538 27.5705Z" fill="#381E63" fill-opacity="0.42"/>
<path d="M0.826904 24.3669H14.1629V25.4285H0.836165V24.9C0.836165 24.7141 0.833091 24.5364 0.826904 24.3669Z" fill="#381E63" fill-opacity="0.42"/>
<path d="M153.216 0C152.88 0 152.572 0.0577926 152.293 0.173378C152.009 0.284517 151.763 0.444558 151.554 0.6535C151.344 0.857997 151.182 1.10028 151.068 1.38035C150.956 1.66043 150.898 1.96717 150.898 2.30058C150.898 2.634 150.956 2.94075 151.068 3.22082C151.182 3.50089 151.344 3.7454 151.554 3.95434C151.763 4.15883 152.009 4.31888 152.293 4.43447C152.572 4.5456 152.88 4.60117 153.216 4.60117C153.548 4.60117 153.856 4.5456 154.14 4.43447C154.423 4.31888 154.669 4.15883 154.88 3.95434C155.089 3.7454 155.25 3.50089 155.364 3.22082C155.478 2.94075 155.534 2.634 155.534 2.30058C155.534 1.96717 155.478 1.66043 155.364 1.38035C155.25 1.10028 155.089 0.857997 154.88 0.6535C154.669 0.444558 154.423 0.284517 154.14 0.173378C153.856 0.0577926 153.548 0 153.216 0ZM152.352 3.74763C152.103 3.6098 151.911 3.41643 151.776 3.16748C151.64 2.91852 151.573 2.62956 151.573 2.30058C151.573 1.96717 151.64 1.6782 151.776 1.4337C151.911 1.18475 152.103 0.991364 152.352 0.853551C152.596 0.715738 152.885 0.646831 153.216 0.646831C153.543 0.646831 153.832 0.715738 154.081 0.853551C154.325 0.991364 154.518 1.18475 154.656 1.4337C154.792 1.6782 154.86 1.96717 154.86 2.30058C154.86 2.62956 154.792 2.91852 154.656 3.16748C154.518 3.41643 154.325 3.6098 154.081 3.74763C153.832 3.88544 153.543 3.95434 153.216 3.95434C152.885 3.95434 152.596 3.88544 152.352 3.74763ZM152.529 1.91382H152.575C152.605 1.87826 152.649 1.84936 152.706 1.82713C152.745 1.8138 152.792 1.80713 152.85 1.80713C152.928 1.80713 153.001 1.82713 153.066 1.86714C153.127 1.90716 153.175 1.9605 153.21 2.02718C153.244 2.09387 153.262 2.17167 153.262 2.26058C153.262 2.40284 153.225 2.51842 153.151 2.60733C153.072 2.69624 152.97 2.7407 152.843 2.7407C152.777 2.7407 152.721 2.72736 152.673 2.70069C152.652 2.68736 152.631 2.67402 152.614 2.66067C152.592 2.6429 152.577 2.62734 152.568 2.614H152.523V3.5209C152.562 3.53868 152.616 3.55201 152.686 3.56091C152.751 3.5698 152.822 3.57425 152.895 3.57425C153.166 3.57425 153.406 3.5209 153.616 3.4142C153.821 3.30306 153.982 3.14969 154.1 2.95409C154.219 2.75403 154.277 2.52509 154.277 2.26725C154.277 2.01385 154.223 1.78934 154.113 1.59374C154.004 1.39813 153.851 1.24698 153.655 1.14029C153.459 1.02915 153.236 0.973582 152.987 0.973582C152.926 0.973582 152.874 0.975804 152.83 0.98025C152.786 0.984695 152.747 0.986918 152.712 0.986918C152.647 0.986918 152.585 0.980249 152.529 0.966913V1.91382Z" fill="#D9D9D9"/>
<path fill-rule="evenodd" clip-rule="evenodd" d="M15.1314 16.0258C14.6458 14.7986 14.4031 13.4432 14.4031 11.9596C14.4031 10.476 14.6458 9.12055 15.1314 7.89336C15.635 6.66617 16.3365 5.60383 17.2356 4.70633C18.1529 3.80883 19.223 3.11281 20.4459 2.61827C21.6869 2.12374 23.0537 1.87646 24.5465 1.87646C26.0213 1.87646 27.3792 2.12374 28.6201 2.61827C29.8611 3.11281 30.9311 3.80883 31.8304 4.70633C32.7296 5.60383 33.422 6.66617 33.9076 7.89336C34.4111 9.12055 34.6629 10.476 34.6629 11.9596C34.6629 13.4432 34.4111 14.7986 33.9076 16.0258C33.422 17.253 32.7296 18.3153 31.8304 19.2129C30.9311 20.1104 29.8611 20.8063 28.6201 21.3009C27.3792 21.7955 26.0213 22.0427 24.5465 22.0427C23.0537 22.0427 21.6869 21.7955 20.4459 21.3009C19.223 20.8063 18.1529 20.1104 17.2356 19.2129C16.3365 18.3153 15.635 17.253 15.1314 16.0258ZM28.4582 11.9596C28.4582 11.1719 28.2874 10.476 27.9456 9.87152C27.6219 9.26708 27.1633 8.79086 26.5698 8.44285C25.9943 8.09484 25.3199 7.92084 24.5465 7.92084C23.7731 7.92084 23.0898 8.09484 22.4963 8.44285C21.9028 8.79086 21.4352 9.26708 21.0934 9.87152C20.7697 10.476 20.6079 11.1719 20.6079 11.9596C20.6079 12.7288 20.7697 13.4249 21.0934 14.0476C21.4352 14.652 21.9028 15.1282 22.4963 15.4763C23.0898 15.8243 23.7731 15.9984 24.5465 15.9984C25.3199 15.9984 25.9943 15.8243 26.5698 15.4763C27.1633 15.1282 27.6219 14.652 27.9456 14.0476C28.2874 13.4249 28.4582 12.7288 28.4582 11.9596Z" fill="#381E63"/>
<path d="M10.7369 16.0534H6.77129V5.94274C6.77129 5.00861 6.85222 4.29427 7.01408 3.79973C7.17595 3.30519 7.39176 2.94803 7.66153 2.72823V2.48096H0.0809317V2.72823C0.332719 2.96635 0.52156 3.34182 0.647453 3.85468C0.773347 4.34922 0.836295 5.04524 0.836295 5.94274V17.9766C0.836295 18.8741 0.764355 19.5792 0.620476 20.0921C0.494582 20.5866 0.287758 20.953 0 21.1911V21.4383H11.816C12.2477 21.4383 12.6703 21.4566 13.084 21.4932C13.4976 21.5299 13.8573 21.594 14.1631 21.6855V15.2016H13.9472C13.6955 15.4946 13.3178 15.7145 12.8141 15.861C12.3286 15.9892 11.6362 16.0534 10.7369 16.0534Z" fill="#381E63"/>
<path d="M46.5798 12.0144C46.7057 12.509 46.7686 13.2142 46.7686 14.13V16.2696C46.6614 16.2719 46.5535 16.273 46.4449 16.273C45.5277 16.273 44.7273 16.1082 44.0439 15.7784C43.3785 15.4304 42.8569 14.9451 42.4792 14.3223C42.1196 13.6813 41.9398 12.9394 41.9398 12.0968C41.9398 11.1993 42.1375 10.4301 42.5333 9.78903C42.9289 9.14796 43.5133 8.66258 44.2867 8.33289C45.0781 7.98488 46.0402 7.81087 47.1733 7.81087C47.6409 7.81087 48.0546 7.83834 48.4143 7.89329C48.7919 7.94824 49.1337 8.03066 49.4394 8.14056C49.6732 8.21383 49.898 8.31457 50.1139 8.44279C50.3477 8.55269 50.5545 8.69006 50.7343 8.8549H50.9771V2.12367C50.5815 2.25188 50.1857 2.31599 49.7901 2.31599C49.5204 2.31599 49.1337 2.27936 48.63 2.20609C48.1444 2.13282 47.578 2.09619 46.9305 2.09619C44.6105 2.09619 42.6142 2.49 40.9416 3.2776C39.2689 4.0652 37.9831 5.2008 37.0838 6.68442C36.1846 8.16804 35.735 9.96304 35.735 12.0694C35.735 14.0293 36.1846 15.7418 37.0838 17.2071C37.9831 18.6724 39.233 19.808 40.8337 20.614C42.4522 21.4198 44.3317 21.8229 46.4719 21.8229C47.6409 21.8229 48.792 21.7404 49.9249 21.5755C51.058 21.4107 52.1102 21.1543 53.0813 20.8063V20.559C52.8116 20.3392 52.6137 20.0279 52.4878 19.6248C52.362 19.2219 52.299 18.59 52.299 17.7291V14.13C52.299 13.2142 52.362 12.509 52.4878 12.0144C52.6137 11.5016 52.8116 11.1262 53.0813 10.8881V10.6407H46.0133V10.8881C46.2651 11.1262 46.4539 11.5016 46.5798 12.0144Z" fill="#381E63"/>
<path fill-rule="evenodd" clip-rule="evenodd" d="M54.0704 16.0258C53.5848 14.7986 53.342 13.4432 53.342 11.9596C53.342 10.476 53.5848 9.12055 54.0704 7.89336C54.5739 6.66617 55.2754 5.60383 56.1746 4.70633C57.0919 3.80883 58.1619 3.11281 59.3849 2.61827C60.6258 2.12374 61.9927 1.87646 63.4855 1.87646C64.9602 1.87646 66.3181 2.12374 67.5591 2.61827C68.7999 3.11281 69.8701 3.80883 70.7694 4.70633C71.6685 5.60383 72.361 6.66617 72.8466 7.89336C73.3501 9.12055 73.6019 10.476 73.6019 11.9596C73.6019 13.4432 73.3501 14.7986 72.8466 16.0258C72.361 17.253 71.6685 18.3153 70.7694 19.2129C69.8701 20.1104 68.7999 20.8063 67.5591 21.3009C66.3181 21.7955 64.9602 22.0427 63.4855 22.0427C61.9927 22.0427 60.6258 21.7955 59.3849 21.3009C58.1619 20.8063 57.0919 20.1104 56.1746 19.2129C55.2754 18.3153 54.5739 17.253 54.0704 16.0258ZM67.3971 11.9596C67.3971 11.1719 67.2263 10.476 66.8846 9.87152C66.5609 9.26708 66.1022 8.79086 65.5087 8.44285C64.9332 8.09484 64.2588 7.92084 63.4855 7.92084C62.7121 7.92084 62.0287 8.09484 61.4352 8.44285C60.8417 8.79086 60.3741 9.26708 60.0323 9.87152C59.7087 10.476 59.5468 11.1719 59.5468 11.9596C59.5468 12.7288 59.7087 13.4249 60.0323 14.0476C60.3741 14.652 60.8417 15.1282 61.4352 15.4763C62.0287 15.8243 62.7121 15.9984 63.4855 15.9984C64.2588 15.9984 64.9332 15.8243 65.5087 15.4763C66.1022 15.1282 66.5609 14.652 66.8846 14.0476C67.2263 13.4249 67.3971 12.7288 67.3971 11.9596Z" fill="#381E63"/>
<path d="M74.8896 3.85468C75.0156 4.34922 75.0785 5.04524 75.0785 5.94274V17.9766C75.0785 18.8741 75.0156 19.5792 74.8896 20.0921C74.7637 20.5866 74.5749 20.953 74.3231 21.1911V21.4383H81.7688V21.1911C81.517 20.953 81.3282 20.5866 81.2023 20.0921C81.0764 19.5792 81.0135 18.8741 81.0135 17.9766V5.94274C81.0135 5.04524 81.0764 4.34922 81.2023 3.85468C81.3282 3.34182 81.517 2.96635 81.7688 2.72823V2.48096H74.3231V2.72823C74.5749 2.96635 74.7637 3.34182 74.8896 3.85468Z" fill="#381E63"/>
<path fill-rule="evenodd" clip-rule="evenodd" d="M89.3052 20.1195C89.4671 20.6141 89.6829 20.9712 89.9526 21.1911V21.4383H82.3721V21.1911C82.6239 20.953 82.8127 20.5866 82.9386 20.0921C83.0645 19.5792 83.1275 18.8741 83.1275 17.9766V5.94274C83.1275 5.04524 83.0555 4.34922 82.9116 3.85468C82.7857 3.34182 82.5789 2.96635 82.2911 2.72823V2.48096H90.9508C92.5695 2.48096 93.9543 2.74654 95.1054 3.27772C96.2744 3.79058 97.1736 4.53238 97.8031 5.50315C98.4325 6.45559 98.7472 7.60951 98.7472 8.96492C98.7472 10.2654 98.4775 11.4193 97.9379 12.4267C97.3984 13.4341 96.5711 14.3133 95.456 15.0642C94.341 15.7969 92.9112 16.4105 91.1666 16.905L89.0624 17.5205V17.9766C89.0624 18.9107 89.1434 19.625 89.3052 20.1195ZM89.8178 12.042L89.0624 12.2372V7.53626H90.4383C91.1936 7.53626 91.7692 7.7011 92.1648 8.03079C92.5605 8.34217 92.7583 8.79092 92.7583 9.37704C92.7583 10.0364 92.5245 10.5768 92.0569 10.9981C91.5893 11.4193 90.843 11.7673 89.8178 12.042Z" fill="#381E63"/>
<path d="M109.499 8.16813H109.714V2.23364C109.355 2.36186 109.022 2.42596 108.716 2.42596C108.519 2.42596 108.222 2.39849 107.826 2.34354C107.431 2.28859 106.99 2.26112 106.504 2.26112C104.202 2.26112 102.412 2.76482 101.135 3.77222C99.8766 4.76129 99.2472 6.10754 99.2472 7.81096C99.2472 8.69014 99.445 9.52352 99.8407 10.3112C100.236 11.0804 100.812 11.7673 101.567 12.3717L102.296 12.9212C102.997 13.4524 103.473 13.8737 103.725 14.1851C103.978 14.4964 104.103 14.8352 104.103 15.2015C104.103 15.5862 103.941 15.9067 103.617 16.1632C103.311 16.4197 102.89 16.5478 102.349 16.5478C102.044 16.5478 101.747 16.5112 101.459 16.4379C101.19 16.3464 100.947 16.2365 100.731 16.1083C100.569 16.035 100.416 15.9433 100.272 15.8335L99.8677 15.4214H99.6518V21.2185C100.011 21.3467 100.542 21.4474 101.243 21.5207C101.963 21.6123 102.664 21.658 103.347 21.658C105.776 21.658 107.646 21.1269 108.959 20.0646C110.272 18.9839 110.928 17.5278 110.928 15.6961C110.928 15.0001 110.82 14.3407 110.605 13.718C110.389 13.0952 110.074 12.5091 109.66 11.9596C109.246 11.4101 108.734 10.8973 108.123 10.421L107.394 9.87153C106.999 9.54184 106.711 9.27625 106.531 9.07478C106.369 8.85498 106.288 8.61687 106.288 8.36045C106.288 8.0857 106.405 7.84759 106.639 7.6461C106.873 7.44463 107.196 7.34389 107.61 7.34389C107.808 7.34389 107.988 7.37136 108.149 7.42631C108.329 7.46295 108.482 7.50873 108.608 7.56368C108.77 7.63695 108.923 7.72853 109.067 7.83843C109.229 7.93001 109.373 8.03991 109.499 8.16813Z" fill="#381E63"/>
<path d="M111.893 5.94274C111.893 5.04524 111.831 4.34922 111.704 3.85468C111.578 3.34182 111.39 2.96635 111.138 2.72823V2.48096H118.557V2.72823C118.305 2.96635 118.116 3.34182 117.99 3.85468C117.883 4.34922 117.828 5.04524 117.828 5.94274V13.9378C117.828 14.6338 117.972 15.165 118.26 15.5313C118.566 15.8977 119.007 16.0808 119.582 16.0808C120.157 16.0808 120.598 15.8977 120.904 15.5313C121.21 15.165 121.362 14.6338 121.362 13.9378V5.94274C121.362 5.04524 121.3 4.34922 121.174 3.85468C121.066 3.34182 120.877 2.96635 120.607 2.72823V2.48096H128.053V2.72823C127.783 2.96635 127.585 3.34182 127.459 3.85468C127.333 4.34922 127.271 5.04524 127.271 5.94274V14.5147C127.271 16.1083 126.965 17.4637 126.353 18.581C125.76 19.6983 124.888 20.5592 123.736 21.1636C122.603 21.7497 121.218 22.0427 119.582 22.0427C117.963 22.0427 116.578 21.7497 115.427 21.1636C114.295 20.5592 113.422 19.6983 112.81 18.581C112.199 17.4637 111.893 16.1083 111.893 14.5147V5.94274Z" fill="#381E63"/>
<path d="M129.03 3.88215C129.174 4.41333 129.246 5.19177 129.246 6.21748V17.9766C129.246 18.8741 129.183 19.5792 129.057 20.0921C128.932 20.5866 128.742 20.953 128.491 21.1911V21.4383H135.774V21.1911C135.523 20.953 135.334 20.5866 135.208 20.0921C135.082 19.5792 135.019 18.8741 135.019 17.9766V12.2848L138.931 15.7786H139.065L142.87 11.9718V17.9766C142.87 18.8741 142.806 19.5792 142.681 20.0921C142.555 20.5866 142.357 20.953 142.087 21.1911V21.4383H149.398V21.1911C149.128 20.953 148.931 20.5866 148.804 20.0921C148.678 19.5792 148.616 18.8741 148.616 17.9766V6.21748C148.616 5.19177 148.687 4.41333 148.831 3.88215C148.993 3.35099 149.218 2.96635 149.505 2.72823V2.48096H143.085V2.67328C143.319 3.11287 143.391 3.56162 143.301 4.01953C143.211 4.45911 142.941 4.89871 142.491 5.3383L139.052 8.85946L135.45 5.28335C135.001 4.82544 134.732 4.38586 134.641 3.96458C134.552 3.52499 134.623 3.09455 134.858 2.67328V2.48096H128.356V2.72823C128.662 2.96635 128.886 3.35099 129.03 3.88215Z" fill="#381E63"/>
</g>
<defs>
<clipPath id="clip0_142_4481">
<rect width="156" height="41" fill="white"/>
</clipPath>
</defs>
</svg>
