<svg width="162" height="31" viewBox="0 0 162 31" fill="none" xmlns="http://www.w3.org/2000/svg">
<g clip-path="url(#clip0_142_4617)">
<path d="M12.4937 30.9999H11.5362C9.04892 30.9999 7.55244 30.9994 6.4093 30.7797L13.025 21.7266L12.4937 30.9999Z" fill="#DB7125"/>
<path d="M23.4361 30.8073C22.3126 30.999 20.8406 30.9999 18.4637 30.9999H17.3317L16.7977 21.7239L23.4361 30.8073Z" fill="#DB7125"/>
<path d="M29.7536 24.5449C29.7053 24.7824 29.6484 25.0057 29.5791 25.2205C29.1252 26.6264 28.3284 27.8629 27.29 28.8286L19.83 20.1841L29.7536 24.5449Z" fill="#DB7125"/>
<path d="M2.61405 28.7364C1.62294 27.7847 0.860509 26.5826 0.420777 25.2206C0.34463 24.9847 0.281407 24.7388 0.230347 24.4748L9.99289 20.1855L2.61405 28.7364Z" fill="#DB7125"/>
<path d="M30 19.0791C30 19.9506 29.9976 20.7044 29.9893 21.3661L21.1296 17.8296H30V19.0791Z" fill="#DB7125"/>
<path d="M8.69715 17.8296L0.00799005 21.2973C0.000529579 20.6522 0 19.9205 0 19.0791V17.8296H8.69715Z" fill="#DB7125"/>
<path d="M18.4637 0C21.5855 0 23.1465 0.000429092 24.4069 0.434837C26.8484 1.27653 28.7647 3.25661 29.5792 5.77948C29.9995 7.08193 30 8.69496 30 11.9208V15.5124H20.6317L27.3886 12.5442L25.3844 11.1695L18.8286 13.7854L21.9061 9.57745L19.6928 8.95133L16.2944 12.8869L16.0414 8.45455H13.7869L13.5299 12.8869L10.1341 8.95133L7.92217 9.57745L10.9957 13.7841L4.4438 11.1695L2.43963 12.5442L9.19522 15.5124H0V11.9208C0 8.69496 0.000415251 7.08193 0.42081 5.77948C1.23535 3.25661 3.15156 1.27653 5.59304 0.434837C6.85349 0.000429092 8.41447 0 11.5363 0H18.4637Z" fill="#DB7125"/>
<path d="M69.9551 24.3685C70.66 25.7346 72.0212 26.5943 73.7754 26.5943C75.5295 26.5943 76.8908 25.7346 77.5958 24.3685H80.2342C79.362 27.098 76.938 28.9224 73.7754 28.9224C70.613 28.9224 68.1887 27.098 67.3162 24.3685H69.9551ZM108.377 9.88875C112.397 9.88875 115.214 12.7461 115.214 16.8471C115.214 21.1862 112.09 23.6472 108.787 23.6472C106.739 23.6472 104.998 22.6945 104.076 21.0013V28.8853H101.643V16.8736C101.643 12.6139 104.46 9.88875 108.377 9.88875ZM108.403 12.2168C105.817 12.2168 104.076 14.122 104.076 16.7676C104.076 19.4133 105.817 21.3184 108.403 21.3184C111.014 21.3184 112.756 19.4134 112.756 16.7676C112.756 14.1219 111.014 12.2168 108.403 12.2168ZM59.294 9.88875C63.2882 9.88875 66.1046 12.799 66.1047 16.7676C66.1047 20.7363 63.2882 23.6472 59.294 23.6472C55.2997 23.6472 52.4831 20.7363 52.4831 16.7676C52.4833 12.799 55.2998 9.88875 59.294 9.88875ZM59.294 12.2168C56.6824 12.2168 54.9412 14.1219 54.9412 16.7676C54.9412 19.4134 56.6823 21.3184 59.294 21.3184C61.9056 21.3184 63.6467 19.4134 63.6467 16.7676C63.6467 14.1219 61.9055 12.2168 59.294 12.2168ZM74.045 9.89479H80.661V12.1426H78.954C79.9875 13.3401 80.5853 14.9412 80.5853 16.7676C80.5853 20.7363 77.769 23.6472 73.7747 23.6472C69.7804 23.6472 66.9639 20.7363 66.9639 16.7676C66.964 12.799 69.7805 9.88875 73.7747 9.88875C73.8654 9.88875 73.9555 9.89177 74.045 9.89479ZM73.7747 12.2168C71.1631 12.2168 69.422 14.1219 69.4219 16.7676C69.4219 19.4134 71.163 21.3184 73.7747 21.3184C76.386 21.3184 78.1275 19.4134 78.1275 16.7676C78.1275 14.1219 76.386 12.2168 73.7747 12.2168ZM88.2563 9.88875C92.25 9.88875 95.067 12.799 95.067 16.7676C95.067 20.7363 92.25 23.6472 88.2563 23.6472C84.2618 23.6472 81.4455 20.7363 81.4455 16.7676C81.4455 12.799 84.2618 9.88875 88.2563 9.88875ZM88.2563 12.2168C85.6448 12.2168 83.9033 14.1219 83.9033 16.7676C83.9033 19.4134 85.6448 21.3184 88.2563 21.3184C90.8678 21.3184 92.6093 19.4134 92.6093 16.7676C92.6085 14.1219 90.8678 12.2168 88.2563 12.2168ZM121.362 9.88875C124.384 9.88882 126.253 11.6617 126.304 13.9105H123.896C123.82 12.9052 122.924 12.1639 121.388 12.1638C119.775 12.1638 118.853 12.9581 118.853 13.99C118.853 15.2332 120.185 15.3654 121.746 15.5771C123.948 15.8681 126.636 16.2916 126.637 19.2811C126.637 21.9267 124.563 23.6471 121.388 23.6472C118.213 23.6472 116.216 21.9006 116.139 19.5194H118.597C118.648 20.6042 119.621 21.3715 121.388 21.3715C123.231 21.3713 124.178 20.5513 124.178 19.5194C124.178 18.276 122.847 18.1168 121.26 17.9051C119.058 17.6141 116.395 17.191 116.395 14.2012C116.395 11.6348 118.341 9.88875 121.362 9.88875ZM130.487 17.0582C130.487 19.8892 131.999 21.3184 134.303 21.3184C136.607 21.3184 138.118 19.8892 138.118 17.0582V10.2323H140.55V17.0582C140.55 21.3973 138.041 23.6465 134.303 23.6465C130.565 23.6465 128.055 21.4238 128.055 17.0582V10.2323H130.487V17.0582ZM42.3618 20.8159H51.7588V23.3029H39.75V5.99934H42.3618V20.8159ZM99.3315 23.3029H96.8993V10.2323H99.3315V23.3029ZM156.57 9.88875C159.54 9.88875 161.794 11.7408 161.794 15.736V23.3029H159.361V15.736C159.361 13.302 158.107 12.2168 156.34 12.2168C154.625 12.2168 153.344 13.3548 153.344 15.736V23.3029H150.911V15.736C150.911 13.3548 149.606 12.2168 147.89 12.2168C146.123 12.2168 144.869 13.3019 144.869 15.736V23.3029H142.436V15.736C142.436 11.7408 144.69 9.88875 147.66 9.88875C149.606 9.88882 151.244 10.7884 152.114 12.4817C152.985 10.7884 154.598 9.88875 156.57 9.88875ZM98.103 4.6499C99.0758 4.6499 99.7935 5.39062 99.7935 6.39592C99.7935 7.40133 99.0758 8.16918 98.103 8.16918C97.1303 8.1691 96.4132 7.40126 96.4132 6.39592C96.4132 5.39069 97.1303 4.65 98.103 4.6499Z" fill="#4A2104"/>
</g>
<defs>
<clipPath id="clip0_142_4617">
<rect width="162" height="31" fill="white"/>
</clipPath>
</defs>
</svg>
