<svg width="28" height="28" viewBox="0 0 28 28" fill="none" xmlns="http://www.w3.org/2000/svg">
<path d="M13.8057 0.701487C15.1895 -0.21592 16.9872 -0.234938 18.3903 0.652982L24.2076 4.33438H26.6C27.3732 4.33438 28 4.95771 28 5.72662V18.2568C28 19.0257 27.3732 19.649 26.6 19.649H24.4724C24.5557 20.9679 23.9309 22.3087 22.6739 23.0587L15.5431 27.3135C14.6429 27.8505 13.5254 27.838 12.6441 27.3029C11.6637 28.1651 10.1544 28.2601 9.05955 27.4046L1.86241 21.781C0.789426 20.9427 0.518089 19.5104 1.07212 18.3749C0.395476 17.8472 0 17.0393 0 16.1837V5.72671C0 4.9578 0.626814 4.33446 1.40001 4.33446H8.32579L13.8057 0.701487ZM3.04173 16.3707L4.01058 15.5277C5.73289 14.029 8.34467 14.1774 9.88411 15.8614L13.6672 19.9997C14.8845 21.3314 15.1066 23.2878 14.2212 24.8548L21.2333 20.6709C21.6273 20.4359 21.7698 19.9661 21.6229 19.5702L15.4249 10.9414C15.0768 10.4567 14.4571 10.2459 13.8834 10.4171L10.404 11.4551C8.92404 11.8966 7.31981 11.4944 6.22725 10.4079L5.81737 10.0003C5.02214 9.20951 4.8165 8.08403 5.15114 7.11895H2.80003V16.1837L3.04173 16.3707ZM16.8871 3.00216C16.4194 2.70618 15.8202 2.71252 15.3589 3.01833L7.79728 8.03139L8.20716 8.439C8.57135 8.80116 9.1061 8.93522 9.59942 8.78805L13.0788 7.75002C14.8 7.23653 16.659 7.8688 17.7035 9.32292L23.1204 16.8645H25.2V7.11887H24.2076C23.6751 7.11887 23.1536 6.96787 22.7043 6.68356L16.8871 3.00216ZM5.85441 17.6232L3.59234 19.5915L10.7895 25.2151L11.775 23.5C12.076 22.9762 12.0034 22.3192 11.5953 21.8727L7.81226 17.7344C7.29911 17.1731 6.42851 17.1236 5.85441 17.6232Z" fill="white"/>
</svg>
