<svg width="46" height="46" viewBox="0 0 46 46" fill="none" xmlns="http://www.w3.org/2000/svg">
<path d="M11.5028 8.95343C14.5467 7.25006 18.2632 6.11133 22.703 6.11133C30.6978 6.11133 36.3402 9.80038 39.9552 13.8324C41.5436 15.6041 42.878 17.5914 43.9197 19.7364C44.3519 20.6345 44.6751 21.4663 44.8968 22.1863C45.1072 22.8797 45.25 23.5562 45.25 24.1113C45.25 25.1004 44.8254 26.6995 44.055 28.4446C43.0965 30.6003 41.8235 32.5993 40.2784 34.3751C36.7442 38.4355 31.0886 42.1113 22.703 42.1113C18.0396 42.1113 14.2235 40.9745 11.1439 39.2692H22.703V37.3745H8.28424C7.19496 36.5221 6.18551 35.5707 5.26858 34.5324H22.7049V32.6376C24.9473 32.6376 27.0979 31.7393 28.6836 30.1403C30.2692 28.5413 31.16 26.3726 31.16 24.1113C31.16 21.85 30.2692 19.6813 28.6836 18.0823C27.0979 16.4833 24.9473 15.585 22.7049 15.585V13.6903H5.5786C6.47672 12.705 7.49697 11.7387 8.64499 10.8482H22.703V8.95343H11.5028ZM22.703 15.585H4.01534C3.29196 16.5513 2.67756 17.5139 2.16649 18.4271H16.4011C17.1942 17.533 18.1654 16.8177 19.2513 16.3279C20.3373 15.8382 21.5135 15.585 22.703 15.585ZM15.1272 20.3219H1.21576C0.945014 20.9289 0.709747 21.5515 0.511169 22.1863C0.407202 22.521 0.323904 22.8469 0.261274 23.164H14.2986C14.4077 22.1752 14.6875 21.2133 15.1254 20.3219M14.2986 25.0587H0.25C0.390919 25.8583 0.685908 26.8416 1.11806 27.9008H15.1254C14.6875 27.0093 14.4077 26.0474 14.2986 25.0587ZM16.3993 29.7955H2.00303C2.48215 30.7088 3.06274 31.6713 3.75793 32.6376H22.703C21.5135 32.6376 20.3373 32.3845 19.2513 31.8947C18.1654 31.405 17.1923 30.6897 16.3993 29.7955Z" fill="#9DAC20"/>
</svg>
